<svg width="19" height="20" viewBox="0 0 19 20" fill="none" xmlns="http://www.w3.org/2000/svg">
<path d="M3.59814 7C3.59814 8.5913 4.23029 10.1174 5.3555 11.2426C6.48072 12.3679 8.00685 13 9.59814 13C11.1894 13 12.7156 12.3679 13.8408 11.2426C14.966 10.1174 15.5981 8.5913 15.5981 7C15.5981 5.4087 14.966 3.88258 13.8408 2.75736C12.7156 1.63214 11.1894 1 9.59814 1C8.00685 1 6.48072 1.63214 5.3555 2.75736C4.23029 3.88258 3.59814 5.4087 3.59814 7Z" stroke="black" stroke-width="1.5" stroke-linecap="round" stroke-linejoin="round"/>
<path d="M9.598 13L12.998 18.89L14.596 15.657L18.194 15.889L14.794 10M4.4 10L1 15.89L4.598 15.657L6.196 18.889L9.596 13" stroke="black" stroke-width="1.5" stroke-linecap="round" stroke-linejoin="round"/>
</svg>
