<svg width="48" height="48" viewBox="0 0 48 48" fill="none" xmlns="http://www.w3.org/2000/svg">
<circle cx="24" cy="24" r="24" fill="#BDFFE3"/>
<path d="M29.7842 13.3333C33.693 13.3333 35.9999 15.5384 35.9999 19.3131H31.2047V19.3516C28.9792 19.3516 27.175 21.0761 27.175 23.2033C27.175 25.3306 28.9792 27.055 31.2047 27.055H35.9999V27.4017C35.9999 31.1282 33.693 33.3333 29.7842 33.3333H19.549C15.6402 33.3333 13.3333 31.1282 13.3333 27.4017V19.265C13.3333 15.5384 15.6402 13.3333 19.549 13.3333H29.7842ZM35.1537 20.9693C35.6211 20.9693 35.9999 21.3315 35.9999 21.7782V24.5899C35.9945 25.0345 35.6188 25.3936 35.1537 25.3988H31.2953C30.1687 25.4133 29.1835 24.676 28.9279 23.627C28.7999 22.9759 28.9796 22.304 29.4187 21.7913C29.8579 21.2787 30.5116 20.9779 31.2047 20.9693H35.1537ZM31.7487 22.2693H31.3759C31.1471 22.2667 30.9267 22.3518 30.7639 22.5056C30.6011 22.6594 30.5096 22.869 30.5096 23.0878C30.5095 23.5467 30.8958 23.9203 31.3759 23.9255H31.7487C32.2271 23.9255 32.615 23.5548 32.615 23.0974C32.615 22.6401 32.2271 22.2693 31.7487 22.2693ZM25.0998 17.6569H18.7027C18.2282 17.6568 17.8419 18.0218 17.8364 18.4754C17.8364 18.9343 18.2226 19.3078 18.7027 19.3131H25.0998C25.5783 19.3131 25.9661 18.9423 25.9661 18.485C25.9661 18.0276 25.5783 17.6569 25.0998 17.6569Z" fill="#020202"/>
</svg>
