<svg width="19" height="18" viewBox="0 0 19 18" fill="none" xmlns="http://www.w3.org/2000/svg">
<path d="M9.81634 17.5168C10.0302 17.3029 10.1422 17.0307 10.1523 16.7001C10.1624 16.3695 10.0602 16.0973 9.8455 15.8834L4.12884 10.1668H17.1663C17.4969 10.1668 17.7742 10.0548 17.9982 9.83076C18.2222 9.60676 18.3338 9.32988 18.333 9.0001C18.333 8.66954 18.221 8.39226 17.997 8.16826C17.773 7.94426 17.4961 7.83265 17.1663 7.83343H4.12884L9.8455 2.11676C10.0594 1.90288 10.1617 1.63065 10.1523 1.3001C10.143 0.969542 10.031 0.697319 9.81634 0.483431C9.60245 0.269542 9.33023 0.162598 8.99967 0.162598C8.66912 0.162598 8.39689 0.269542 8.183 0.483431L0.483006 8.18343C0.366339 8.28065 0.283503 8.40238 0.234503 8.5486C0.185503 8.69482 0.161392 8.84532 0.16217 9.0001C0.16217 9.15565 0.186281 9.30149 0.234503 9.4376C0.282726 9.57371 0.365561 9.7001 0.483006 9.81676L8.183 17.5168C8.39689 17.7307 8.66912 17.8376 8.99967 17.8376C9.33023 17.8376 9.60245 17.7307 9.81634 17.5168Z" fill="black"/>
</svg>
