<svg width="11" height="12" viewBox="0 0 11 12" fill="none" xmlns="http://www.w3.org/2000/svg">
<path d="M4.88789 8.80847H5.95456V6.67514H8.08789V5.60847H5.95456V3.47514H4.88789V5.60847H2.75456V6.67514H4.88789V8.80847ZM5.42122 11.4751C4.68345 11.4751 3.99011 11.335 3.34122 11.0549C2.69234 10.7751 2.12789 10.3951 1.64789 9.91514C1.16789 9.43514 0.78798 8.87069 0.508157 8.22181C0.22798 7.57292 0.0878906 6.87958 0.0878906 6.14181C0.0878906 5.40403 0.22798 4.71069 0.508157 4.06181C0.78798 3.41292 1.16789 2.84847 1.64789 2.36847C2.12789 1.88847 2.69234 1.50838 3.34122 1.2282C3.99011 0.948383 4.68345 0.808472 5.42122 0.808472C6.159 0.808472 6.85233 0.948383 7.50122 1.2282C8.15011 1.50838 8.71456 1.88847 9.19456 2.36847C9.67456 2.84847 10.0545 3.41292 10.3343 4.06181C10.6145 4.71069 10.7546 5.40403 10.7546 6.14181C10.7546 6.87958 10.6145 7.57292 10.3343 8.22181C10.0545 8.87069 9.67456 9.43514 9.19456 9.91514C8.71456 10.3951 8.15011 10.7751 7.50122 11.0549C6.85233 11.335 6.159 11.4751 5.42122 11.4751Z" fill="black"/>
</svg>
