<svg width="18" height="14" viewBox="0 0 18 14" fill="none" xmlns="http://www.w3.org/2000/svg">
<path d="M3.0625 0.125C2.31658 0.125 1.60121 0.421316 1.07376 0.948762C0.546316 1.47621 0.25 2.19158 0.25 2.9375V3.875H17.75V2.9375C17.75 2.19158 17.4537 1.47621 16.9262 0.948762C16.3988 0.421316 15.6834 0.125 14.9375 0.125H3.0625ZM0.25 11.0625V5.125H17.75V11.0625C17.75 11.8084 17.4537 12.5238 16.9262 13.0512C16.3988 13.5787 15.6834 13.875 14.9375 13.875H3.0625C2.31658 13.875 1.60121 13.5787 1.07376 13.0512C0.546316 12.5238 0.25 11.8084 0.25 11.0625ZM12.125 8.875C11.9592 8.875 11.8003 8.94085 11.6831 9.05806C11.5658 9.17527 11.5 9.33424 11.5 9.5C11.5 9.66576 11.5658 9.82473 11.6831 9.94194C11.8003 10.0592 11.9592 10.125 12.125 10.125H14C14.1658 10.125 14.3247 10.0592 14.4419 9.94194C14.5592 9.82473 14.625 9.66576 14.625 9.5C14.625 9.33424 14.5592 9.17527 14.4419 9.05806C14.3247 8.94085 14.1658 8.875 14 8.875H12.125Z" fill="black"/>
</svg>
