<svg width="61" height="60" viewBox="0 0 61 60" fill="none" xmlns="http://www.w3.org/2000/svg">
<circle cx="30.7229" cy="29.8694" r="29.8694" fill="#FFCC2A"/>
<path d="M23.3844 21.3719C22.4624 21.3719 21.5783 21.7382 20.9264 22.3901C20.2744 23.042 19.9082 23.9262 19.9082 24.8481V26.0069H41.5378V24.8481C41.5378 23.9262 41.1715 23.042 40.5196 22.3901C39.8677 21.7382 38.9835 21.3719 38.0616 21.3719H23.3844ZM19.9082 34.8904V27.5518H41.5378V34.8904C41.5378 35.8124 41.1715 36.6965 40.5196 37.3484C39.8677 38.0004 38.9835 38.3666 38.0616 38.3666H23.3844C22.4624 38.3666 21.5783 38.0004 20.9264 37.3484C20.2744 36.6965 19.9082 35.8124 19.9082 34.8904ZM34.5854 32.1867C34.3805 32.1867 34.184 32.2681 34.0392 32.413C33.8943 32.5578 33.8129 32.7543 33.8129 32.9592C33.8129 33.1641 33.8943 33.3606 34.0392 33.5054C34.184 33.6503 34.3805 33.7317 34.5854 33.7317H36.9028C37.1077 33.7317 37.3042 33.6503 37.4491 33.5054C37.5939 33.3606 37.6753 33.1641 37.6753 32.9592C37.6753 32.7543 37.5939 32.5578 37.4491 32.413C37.3042 32.2681 37.1077 32.1867 36.9028 32.1867H34.5854Z" fill="black"/>
</svg>
