<svg width="17" height="17" viewBox="0 0 17 17" fill="none" xmlns="http://www.w3.org/2000/svg">
<path d="M16.3299 0.382559C16.2127 0.265135 16.0735 0.171975 15.9203 0.108411C15.767 0.0448483 15.6028 0.01213 15.4369 0.01213C15.271 0.01213 15.1067 0.0448483 14.9535 0.108411C14.8003 0.171975 14.6611 0.265135 14.5439 0.382559L8.34989 6.56389L2.15589 0.369892C2.03862 0.252622 1.8994 0.159598 1.74618 0.0961316C1.59296 0.0326653 1.42874 1.23564e-09 1.26289 0C1.09705 -1.23565e-09 0.932826 0.0326653 0.779604 0.0961316C0.626383 0.159598 0.487163 0.252622 0.369892 0.369892C0.252622 0.487163 0.159598 0.626383 0.0961316 0.779604C0.0326653 0.932826 -1.23564e-09 1.09705 0 1.26289C1.23565e-09 1.42874 0.0326653 1.59296 0.0961316 1.74618C0.159598 1.8994 0.252622 2.03862 0.369892 2.15589L6.56389 8.34989L0.369892 14.5439C0.252622 14.6612 0.159598 14.8004 0.0961316 14.9536C0.0326653 15.1068 0 15.271 0 15.4369C0 15.6027 0.0326653 15.767 0.0961316 15.9202C0.159598 16.0734 0.252622 16.2126 0.369892 16.3299C0.487163 16.4472 0.626383 16.5402 0.779604 16.6037C0.932826 16.6671 1.09705 16.6998 1.26289 16.6998C1.42874 16.6998 1.59296 16.6671 1.74618 16.6037C1.8994 16.5402 2.03862 16.4472 2.15589 16.3299L8.34989 10.1359L14.5439 16.3299C14.6612 16.4472 14.8004 16.5402 14.9536 16.6037C15.1068 16.6671 15.271 16.6998 15.4369 16.6998C15.6027 16.6998 15.767 16.6671 15.9202 16.6037C16.0734 16.5402 16.2126 16.4472 16.3299 16.3299C16.4472 16.2126 16.5402 16.0734 16.6037 15.9202C16.6671 15.767 16.6998 15.6027 16.6998 15.4369C16.6998 15.271 16.6671 15.1068 16.6037 14.9536C16.5402 14.8004 16.4472 14.6612 16.3299 14.5439L10.1359 8.34989L16.3299 2.15589C16.8112 1.67456 16.8112 0.863893 16.3299 0.382559Z" fill="black"/>
</svg>
