<svg width="18" height="18" viewBox="0 0 18 18" fill="none" xmlns="http://www.w3.org/2000/svg">
<path d="M9.5625 9.5625C9.5625 9.87316 9.31066 10.125 9 10.125C8.68934 10.125 8.4375 9.87316 8.4375 9.5625C8.4375 9.25184 8.68934 9 9 9C9.31066 9 9.5625 9.25184 9.5625 9.5625Z" fill="#0F172A"/>
<path d="M5.625 11.8125C5.93566 11.8125 6.1875 11.5607 6.1875 11.25C6.1875 10.9393 5.93566 10.6875 5.625 10.6875C5.31434 10.6875 5.0625 10.9393 5.0625 11.25C5.0625 11.5607 5.31434 11.8125 5.625 11.8125Z" fill="#0F172A"/>
<path d="M6.1875 12.9375C6.1875 13.2482 5.93566 13.5 5.625 13.5C5.31434 13.5 5.0625 13.2482 5.0625 12.9375C5.0625 12.6268 5.31434 12.375 5.625 12.375C5.93566 12.375 6.1875 12.6268 6.1875 12.9375Z" fill="#0F172A"/>
<path d="M7.3125 11.8125C7.62316 11.8125 7.875 11.5607 7.875 11.25C7.875 10.9393 7.62316 10.6875 7.3125 10.6875C7.00184 10.6875 6.75 10.9393 6.75 11.25C6.75 11.5607 7.00184 11.8125 7.3125 11.8125Z" fill="#0F172A"/>
<path d="M7.875 12.9375C7.875 13.2482 7.62316 13.5 7.3125 13.5C7.00184 13.5 6.75 13.2482 6.75 12.9375C6.75 12.6268 7.00184 12.375 7.3125 12.375C7.62316 12.375 7.875 12.6268 7.875 12.9375Z" fill="#0F172A"/>
<path d="M9 11.8125C9.31066 11.8125 9.5625 11.5607 9.5625 11.25C9.5625 10.9393 9.31066 10.6875 9 10.6875C8.68934 10.6875 8.4375 10.9393 8.4375 11.25C8.4375 11.5607 8.68934 11.8125 9 11.8125Z" fill="#0F172A"/>
<path d="M9.5625 12.9375C9.5625 13.2482 9.31066 13.5 9 13.5C8.68934 13.5 8.4375 13.2482 8.4375 12.9375C8.4375 12.6268 8.68934 12.375 9 12.375C9.31066 12.375 9.5625 12.6268 9.5625 12.9375Z" fill="#0F172A"/>
<path d="M10.6875 11.8125C10.9982 11.8125 11.25 11.5607 11.25 11.25C11.25 10.9393 10.9982 10.6875 10.6875 10.6875C10.3768 10.6875 10.125 10.9393 10.125 11.25C10.125 11.5607 10.3768 11.8125 10.6875 11.8125Z" fill="#0F172A"/>
<path d="M11.25 12.9375C11.25 13.2482 10.9982 13.5 10.6875 13.5C10.3768 13.5 10.125 13.2482 10.125 12.9375C10.125 12.6268 10.3768 12.375 10.6875 12.375C10.9982 12.375 11.25 12.6268 11.25 12.9375Z" fill="#0F172A"/>
<path d="M12.375 11.8125C12.6857 11.8125 12.9375 11.5607 12.9375 11.25C12.9375 10.9393 12.6857 10.6875 12.375 10.6875C12.0643 10.6875 11.8125 10.9393 11.8125 11.25C11.8125 11.5607 12.0643 11.8125 12.375 11.8125Z" fill="#0F172A"/>
<path d="M11.25 9.5625C11.25 9.87316 10.9982 10.125 10.6875 10.125C10.3768 10.125 10.125 9.87316 10.125 9.5625C10.125 9.25184 10.3768 9 10.6875 9C10.9982 9 11.25 9.25184 11.25 9.5625Z" fill="#0F172A"/>
<path d="M12.375 10.125C12.6857 10.125 12.9375 9.87316 12.9375 9.5625C12.9375 9.25184 12.6857 9 12.375 9C12.0643 9 11.8125 9.25184 11.8125 9.5625C11.8125 9.87316 12.0643 10.125 12.375 10.125Z" fill="#0F172A"/>
<path fill-rule="evenodd" clip-rule="evenodd" d="M5.0625 1.6875C5.37316 1.6875 5.625 1.93934 5.625 2.25V3.375H12.375V2.25C12.375 1.93934 12.6268 1.6875 12.9375 1.6875C13.2482 1.6875 13.5 1.93934 13.5 2.25V3.375H14.0625C15.3051 3.375 16.3125 4.38236 16.3125 5.625V14.0625C16.3125 15.3051 15.3051 16.3125 14.0625 16.3125H3.9375C2.69486 16.3125 1.6875 15.3051 1.6875 14.0625V5.625C1.6875 4.38236 2.69486 3.375 3.9375 3.375H4.5V2.25C4.5 1.93934 4.75184 1.6875 5.0625 1.6875ZM15.1875 8.4375C15.1875 7.81618 14.6838 7.3125 14.0625 7.3125H3.9375C3.31618 7.3125 2.8125 7.81618 2.8125 8.4375V14.0625C2.8125 14.6838 3.31618 15.1875 3.9375 15.1875H14.0625C14.6838 15.1875 15.1875 14.6838 15.1875 14.0625V8.4375Z" fill="#0F172A"/>
</svg>
