<svg width="11" height="11" viewBox="0 0 11 11" fill="none" xmlns="http://www.w3.org/2000/svg">
<path d="M5.40674 7.9375C5.32341 7.9375 5.24528 7.92459 5.17236 7.89875C5.09945 7.87292 5.03174 7.82854 4.96924 7.76563L2.71924 5.51563C2.60466 5.40104 2.54736 5.25521 2.54736 5.07813C2.54736 4.90104 2.60466 4.75521 2.71924 4.64063C2.83382 4.52604 2.98236 4.46625 3.16486 4.46125C3.34736 4.45625 3.4957 4.51084 3.60986 4.625L4.78174 5.79688V1.32813C4.78174 1.15104 4.84174 1.0025 4.96174 0.882502C5.08174 0.762502 5.23007 0.70271 5.40674 0.703127C5.58382 0.703127 5.73236 0.763127 5.85236 0.883127C5.97236 1.00313 6.03216 1.15146 6.03174 1.32813V5.79688L7.20361 4.625C7.3182 4.51042 7.46674 4.45563 7.64924 4.46063C7.83174 4.46563 7.98007 4.52563 8.09424 4.64063C8.20882 4.75521 8.26612 4.90104 8.26612 5.07813C8.26612 5.25521 8.20882 5.40104 8.09424 5.51563L5.84424 7.76563C5.78174 7.82813 5.71403 7.8725 5.64111 7.89875C5.5682 7.925 5.49007 7.93792 5.40674 7.9375ZM1.65674 10.7031C1.31299 10.7031 1.01861 10.5806 0.773614 10.3356C0.528614 10.0906 0.406323 9.79646 0.406739 9.45313V8.20313C0.406739 8.02604 0.466739 7.8775 0.586739 7.7575C0.706739 7.6375 0.855073 7.57771 1.03174 7.57813C1.20882 7.57813 1.35736 7.63813 1.47736 7.75813C1.59736 7.87813 1.65716 8.02646 1.65674 8.20313V9.45313H9.15674V8.20313C9.15674 8.02604 9.21674 7.8775 9.33674 7.7575C9.45674 7.6375 9.60507 7.57771 9.78174 7.57813C9.95882 7.57813 10.1074 7.63813 10.2274 7.75813C10.3474 7.87813 10.4072 8.02646 10.4067 8.20313V9.45313C10.4067 9.79688 10.2842 10.0913 10.0392 10.3363C9.79424 10.5813 9.50007 10.7035 9.15674 10.7031H1.65674Z" fill="#757575"/>
</svg>
