<svg width="16" height="10" viewBox="0 0 16 10" fill="none" xmlns="http://www.w3.org/2000/svg">
<path d="M15.308 1.88857L8.56249 9.10968C8.48219 9.19539 8.39519 9.25625 8.3015 9.29224C8.20782 9.32824 8.10744 9.34596 8.00037 9.34538C7.89329 9.34538 7.79292 9.32739 7.69923 9.29139C7.60554 9.25539 7.51854 9.19482 7.43824 9.10968L0.672664 1.88857C0.485289 1.68858 0.391601 1.43859 0.391601 1.13861C0.391601 0.838618 0.491981 0.581488 0.69274 0.367211C0.893499 0.152935 1.12772 0.0457973 1.3954 0.0457973C1.66307 0.0457973 1.89729 0.152935 2.09805 0.367211L8.00037 6.66693L13.9027 0.367211C14.0901 0.16722 14.3211 0.0672239 14.5957 0.0672239C14.8703 0.0672239 15.1078 0.174362 15.308 0.388638C15.5088 0.602914 15.6091 0.852903 15.6091 1.1386C15.6091 1.42431 15.5088 1.6743 15.308 1.88857Z" fill="black"/>
</svg>
