<svg width="27" height="31" viewBox="0 0 27 31" fill="none" xmlns="http://www.w3.org/2000/svg">
<path fill-rule="evenodd" clip-rule="evenodd" d="M5.60184 2.91667C5.60184 2.55167 9.36517 0 13.1018 0C16.8385 0 20.6018 2.5525 20.6018 2.91667C20.6018 4.21667 20.4635 4.98667 20.3468 5.40583C20.2693 5.68083 20.0118 5.83333 19.726 5.83333H6.47767C6.19184 5.83333 5.93434 5.68083 5.85684 5.40583C5.74017 4.98667 5.60184 4.21667 5.60184 2.91667ZM11.8518 2.5C11.6308 2.5 11.4189 2.5878 11.2626 2.74408C11.1063 2.90036 11.0185 3.11232 11.0185 3.33333C11.0185 3.55435 11.1063 3.76631 11.2626 3.92259C11.4189 4.07887 11.6308 4.16667 11.8518 4.16667H14.3518C14.5729 4.16667 14.7848 4.07887 14.9411 3.92259C15.0974 3.76631 15.1852 3.55435 15.1852 3.33333C15.1852 3.11232 15.0974 2.90036 14.9411 2.74408C14.7848 2.5878 14.5729 2.5 14.3518 2.5H11.8518ZM6.46684 11.015C3.69184 10.1567 4.39184 8.62333 5.45017 7.5H20.9852C21.8318 8.58167 22.286 10.0408 19.7268 10.9142C19.8314 11.8425 19.7398 12.7825 19.4577 13.6731C19.1757 14.5638 18.7096 15.3852 18.0898 16.0841C17.4699 16.7831 16.71 17.3439 15.8594 17.7303C15.0089 18.1167 14.0866 18.32 13.1524 18.3271C12.2182 18.3341 11.2929 18.1447 10.4366 17.7712C9.58031 17.3977 8.81207 16.8484 8.18171 16.1589C7.55135 15.4693 7.07295 14.655 6.77752 13.7688C6.4821 12.8825 6.37625 11.944 6.46684 11.0142V11.015ZM12.8752 11.6667C15.0768 11.6667 16.7835 11.55 18.0918 11.3467C18.1348 12.0261 18.0386 12.7072 17.8091 13.3481C17.5796 13.989 17.2217 14.5764 16.7572 15.0741C16.2927 15.5718 15.7314 15.9694 15.1078 16.2425C14.4842 16.5156 13.8114 16.6585 13.1306 16.6624C12.4498 16.6664 11.7754 16.5312 11.1487 16.2653C10.522 15.9994 9.95623 15.6083 9.48602 15.1159C9.01582 14.6236 8.6511 14.0405 8.41423 13.4022C8.17736 12.7639 8.07332 12.084 8.1085 11.4042C9.32767 11.5725 10.8902 11.6667 12.8752 11.6667ZM20.116 23.8333C19.3622 22.6573 18.3247 21.6899 17.099 21.02C15.8732 20.3501 14.4987 19.9993 13.1018 20C11.7044 19.9991 10.3292 20.3499 9.10303 21.0201C7.87681 21.6903 6.83898 22.6583 6.08517 23.835C5.8054 23.4041 5.37574 23.0923 4.87934 22.96L3.26934 22.5292C2.7357 22.3861 2.16709 22.4609 1.68857 22.737C1.21005 23.0131 0.860813 23.4681 0.71767 24.0017L0.0710037 26.4167C0.000180354 26.681 -0.0178901 26.9566 0.0178244 27.2279C0.0535389 27.4991 0.142339 27.7607 0.279153 27.9977C0.415968 28.2346 0.598116 28.4423 0.815198 28.6088C1.03228 28.7754 1.28004 28.8975 1.54434 28.9683L3.1535 29.4C3.42417 29.4729 3.7068 29.4903 3.98436 29.451C4.26192 29.4118 4.52866 29.3168 4.7685 29.1717C4.76917 29.3927 4.8576 29.6044 5.01435 29.7602C5.1711 29.916 5.38332 30.0032 5.60434 30.0025C5.82535 30.0018 6.03705 29.9134 6.19286 29.7567C6.34867 29.5999 6.43583 29.3877 6.43517 29.1667V28.3333C6.43517 28.0158 6.45767 27.7033 6.50017 27.3975L10.8368 28.56C11.0381 28.9909 11.3582 29.3554 11.7594 29.6108C12.1605 29.8662 12.6263 30.0018 13.1018 30.0018C13.5774 30.0018 14.0431 29.8662 14.4443 29.6108C14.8455 29.3554 15.1655 28.9909 15.3668 28.56L19.7035 27.3975C19.746 27.7033 19.7685 28.0158 19.7685 28.3333V29.1667C19.7674 29.3877 19.8541 29.6001 20.0096 29.7571C20.1651 29.9142 20.3767 30.0031 20.5977 30.0042C20.8187 30.0053 21.0311 29.9185 21.1881 29.763C21.3452 29.6075 21.4341 29.396 21.4352 29.175C21.9018 29.455 22.4785 29.5525 23.046 29.4L24.656 28.9692C24.9203 28.8984 25.1681 28.7762 25.3851 28.6097C25.6022 28.4431 25.7844 28.2354 25.9212 27.9985C26.058 27.7615 26.1468 27.5 26.1825 27.2287C26.2182 26.9574 26.2002 26.6818 26.1293 26.4175L25.4818 24.0025C25.3387 23.4689 24.9895 23.014 24.5109 22.7378C24.0324 22.4617 23.4638 22.3869 22.9302 22.53L21.3202 22.9608C20.8249 23.0927 20.396 23.404 20.116 23.8333ZM6.93767 25.7892C7.38783 24.7005 8.11817 23.7503 9.05448 23.0353C9.99079 22.3203 11.0997 21.8659 12.2685 21.7183V25.1425C11.895 25.275 11.5583 25.4941 11.286 25.782C11.0136 26.0698 10.8135 26.4181 10.7018 26.7983L6.93767 25.79V25.7892ZM19.266 25.7892C18.8158 24.7005 18.0854 23.7504 17.1491 23.0354C16.2128 22.3204 15.104 21.866 13.9352 21.7183V25.1425C14.6885 25.4092 15.2768 26.0258 15.5018 26.7983L19.266 25.79V25.7892ZM13.1018 28.3333C13.3229 28.3333 13.5348 28.2455 13.6911 28.0893C13.8474 27.933 13.9352 27.721 13.9352 27.5C13.9352 27.279 13.8474 27.067 13.6911 26.9107C13.5348 26.7545 13.3229 26.6667 13.1018 26.6667C12.8808 26.6667 12.6689 26.7545 12.5126 26.9107C12.3563 27.067 12.2685 27.279 12.2685 27.5C12.2685 27.721 12.3563 27.933 12.5126 28.0893C12.6689 28.2455 12.8808 28.3333 13.1018 28.3333Z" fill="black"/>
</svg>
