<svg width="48" height="48" viewBox="0 0 48 48" fill="none" xmlns="http://www.w3.org/2000/svg">
<circle cx="24" cy="24" r="24" fill="#CBB3FF"/>
<path fill-rule="evenodd" clip-rule="evenodd" d="M16.6018 11.9167C16.6018 11.5517 20.3652 9 24.1018 9C27.8385 9 31.6018 11.5525 31.6018 11.9167C31.6018 13.2167 31.4635 13.9867 31.3468 14.4058C31.2693 14.6808 31.0118 14.8333 30.726 14.8333H17.4777C17.1918 14.8333 16.9343 14.6808 16.8568 14.4058C16.7402 13.9867 16.6018 13.2167 16.6018 11.9167ZM22.8518 11.5C22.6308 11.5 22.4189 11.5878 22.2626 11.7441C22.1063 11.9004 22.0185 12.1123 22.0185 12.3333C22.0185 12.5543 22.1063 12.7663 22.2626 12.9226C22.4189 13.0789 22.6308 13.1667 22.8518 13.1667H25.3518C25.5729 13.1667 25.7848 13.0789 25.9411 12.9226C26.0974 12.7663 26.1852 12.5543 26.1852 12.3333C26.1852 12.1123 26.0974 11.9004 25.9411 11.7441C25.7848 11.5878 25.5729 11.5 25.3518 11.5H22.8518ZM17.4668 20.015C14.6918 19.1567 15.3918 17.6233 16.4502 16.5H31.9852C32.8318 17.5817 33.286 19.0408 30.7268 19.9142C30.8314 20.8425 30.7398 21.7825 30.4577 22.6731C30.1757 23.5638 29.7096 24.3852 29.0898 25.0841C28.4699 25.7831 27.71 26.3439 26.8594 26.7303C26.0089 27.1167 25.0866 27.32 24.1524 27.3271C23.2182 27.3341 22.2929 27.1447 21.4366 26.7712C20.5803 26.3977 19.8121 25.8484 19.1817 25.1589C18.5514 24.4693 18.0729 23.655 17.7775 22.7688C17.4821 21.8825 17.3763 20.944 17.4668 20.0142V20.015ZM23.8752 20.6667C26.0768 20.6667 27.7835 20.55 29.0918 20.3467C29.1348 21.0261 29.0386 21.7072 28.8091 22.3481C28.5796 22.989 28.2217 23.5764 27.7572 24.0741C27.2927 24.5718 26.7314 24.9694 26.1078 25.2425C25.4842 25.5156 24.8114 25.6585 24.1306 25.6624C23.4498 25.6664 22.7754 25.5312 22.1487 25.2653C21.522 24.9994 20.9562 24.6083 20.486 24.1159C20.0158 23.6236 19.6511 23.0405 19.4142 22.4022C19.1774 21.7639 19.0733 21.084 19.1085 20.4042C20.3277 20.5725 21.8902 20.6667 23.8752 20.6667ZM31.116 32.8333C30.3622 31.6573 29.3247 30.6899 28.099 30.02C26.8732 29.3501 25.4987 28.9993 24.1018 29C22.7044 28.9991 21.3292 29.3499 20.103 30.0201C18.8768 30.6903 17.839 31.6583 17.0852 32.835C16.8054 32.4041 16.3757 32.0923 15.8793 31.96L14.2693 31.5292C13.7357 31.3861 13.1671 31.4609 12.6886 31.737C12.2101 32.0131 11.8608 32.4681 11.7177 33.0017L11.071 35.4167C11.0002 35.681 10.9821 35.9566 11.0178 36.2279C11.0535 36.4991 11.1423 36.7607 11.2792 36.9977C11.416 37.2346 11.5981 37.4423 11.8152 37.6088C12.0323 37.7754 12.28 37.8975 12.5443 37.9683L14.1535 38.4C14.4242 38.4729 14.7068 38.4903 14.9844 38.451C15.2619 38.4118 15.5287 38.3168 15.7685 38.1717C15.7692 38.3927 15.8576 38.6044 16.0143 38.7602C16.1711 38.916 16.3833 39.0032 16.6043 39.0025C16.8254 39.0018 17.037 38.9134 17.1929 38.7567C17.3487 38.5999 17.4358 38.3877 17.4352 38.1667V37.3333C17.4352 37.0158 17.4577 36.7033 17.5002 36.3975L21.8368 37.56C22.0381 37.9909 22.3582 38.3554 22.7594 38.6108C23.1605 38.8662 23.6263 39.0018 24.1018 39.0018C24.5774 39.0018 25.0431 38.8662 25.4443 38.6108C25.8455 38.3554 26.1655 37.9909 26.3668 37.56L30.7035 36.3975C30.746 36.7033 30.7685 37.0158 30.7685 37.3333V38.1667C30.7674 38.3877 30.8541 38.6001 31.0096 38.7571C31.1651 38.9142 31.3767 39.0031 31.5977 39.0042C31.8187 39.0053 32.0311 38.9185 32.1881 38.763C32.3452 38.6075 32.4341 38.396 32.4352 38.175C32.9018 38.455 33.4785 38.5525 34.046 38.4L35.656 37.9692C35.9203 37.8984 36.1681 37.7762 36.3851 37.6097C36.6022 37.4431 36.7844 37.2354 36.9212 36.9985C37.058 36.7615 37.1468 36.5 37.1825 36.2287C37.2182 35.9574 37.2002 35.6818 37.1293 35.4175L36.4818 33.0025C36.3387 32.4689 35.9895 32.014 35.5109 31.7378C35.0324 31.4617 34.4638 31.3869 33.9302 31.53L32.3202 31.9608C31.8249 32.0927 31.396 32.404 31.116 32.8333ZM17.9377 34.7892C18.3878 33.7005 19.1182 32.7503 20.0545 32.0353C20.9908 31.3203 22.0997 30.8659 23.2685 30.7183V34.1425C22.895 34.275 22.5583 34.4941 22.286 34.782C22.0136 35.0698 21.8135 35.4181 21.7018 35.7983L17.9377 34.79V34.7892ZM30.266 34.7892C29.8158 33.7005 29.0854 32.7504 28.1491 32.0354C27.2128 31.3204 26.104 30.866 24.9352 30.7183V34.1425C25.6885 34.4092 26.2768 35.0258 26.5018 35.7983L30.266 34.79V34.7892ZM24.1018 37.3333C24.3229 37.3333 24.5348 37.2455 24.6911 37.0893C24.8474 36.933 24.9352 36.721 24.9352 36.5C24.9352 36.279 24.8474 36.067 24.6911 35.9107C24.5348 35.7545 24.3229 35.6667 24.1018 35.6667C23.8808 35.6667 23.6689 35.7545 23.5126 35.9107C23.3563 36.067 23.2685 36.279 23.2685 36.5C23.2685 36.721 23.3563 36.933 23.5126 37.0893C23.6689 37.2455 23.8808 37.3333 24.1018 37.3333Z" fill="black"/>
</svg>
