<svg width="13" height="15" viewBox="0 0 13 15" fill="none" xmlns="http://www.w3.org/2000/svg">
<path d="M11.7857 11.7857V13.9286H1.07143V11.7857H0V13.9286L0.00428565 13.9259C0.0037924 14.0665 0.0310077 14.2058 0.0843763 14.3359C0.137745 14.466 0.216221 14.5843 0.315321 14.684C0.414422 14.7838 0.532204 14.863 0.661939 14.9172C0.791675 14.9714 0.93082 14.9996 1.07143 15H11.7857C12.0699 15 12.3424 14.8871 12.5433 14.6862C12.7442 14.4852 12.8571 14.2127 12.8571 13.9286V11.7857H11.7857ZM1.07143 5.35714L1.82732 6.10981L5.89285 2.0491V11.7857H6.96428V2.0491L11.0309 6.10981L11.7857 5.35714L6.42856 0L1.07143 5.35714Z" fill="black"/>
</svg>
