<svg width="20" height="13" viewBox="0 0 20 13" fill="none" xmlns="http://www.w3.org/2000/svg">
<path d="M10.0059 3.93054C10.6888 3.93054 11.3438 4.20182 11.8267 4.68472C12.3096 5.16762 12.5809 5.82256 12.5809 6.50548C12.5809 7.1884 12.3096 7.84335 11.8267 8.32624C11.3438 8.80914 10.6888 9.08043 10.0059 9.08043C9.32301 9.08043 8.66806 8.80914 8.18516 8.32624C7.70227 7.84335 7.43098 7.1884 7.43098 6.50548C7.43098 5.82256 7.70227 5.16762 8.18516 4.68472C8.66806 4.20182 9.32301 3.93054 10.0059 3.93054ZM10.0059 0.0681152C14.2975 0.0681152 17.9625 2.73748 19.4474 6.50548C17.9625 10.2735 14.2975 12.9428 10.0059 12.9428C5.71435 12.9428 2.04934 10.2735 0.564453 6.50548C2.04934 2.73748 5.71435 0.0681152 10.0059 0.0681152ZM2.43558 6.50548C3.12932 7.92197 4.20655 9.1154 5.54481 9.95012C6.88307 10.7848 8.42868 11.2274 10.0059 11.2274C11.5832 11.2274 13.1288 10.7848 14.467 9.95012C15.8053 9.1154 16.8825 7.92197 17.5763 6.50548C16.8825 5.089 15.8053 3.89556 14.467 3.06084C13.1288 2.22613 11.5832 1.78361 10.0059 1.78361C8.42868 1.78361 6.88307 2.22613 5.54481 3.06084C4.20655 3.89556 3.12932 5.089 2.43558 6.50548Z" fill="#FFD240"/>
</svg>
