<svg width="16" height="17" viewBox="0 0 16 17" fill="none" xmlns="http://www.w3.org/2000/svg">
<path d="M1.41693 8.36422L14.5598 2.38708M14.5598 2.38708L12.1026 1.46136M14.5598 2.38708L13.6455 4.84422M15.1426 16.3299H12.2855V8.32994C12.2855 8.17838 12.3457 8.03304 12.4529 7.92587C12.56 7.81871 12.7054 7.75851 12.8569 7.75851H14.5712C14.7228 7.75851 14.8681 7.81871 14.9753 7.92587C15.0824 8.03304 15.1426 8.17838 15.1426 8.32994V16.3299ZM9.42836 16.3299H6.57122V10.0442C6.57122 9.89267 6.63142 9.74732 6.73859 9.64016C6.84575 9.533 6.9911 9.47279 7.14265 9.47279H8.85693C9.00849 9.47279 9.15383 9.533 9.26099 9.64016C9.36816 9.74732 9.42836 9.89267 9.42836 10.0442V16.3299ZM3.71408 16.3299H0.856934V11.7585C0.856934 11.607 0.917137 11.4616 1.0243 11.3544C1.13146 11.2473 1.27681 11.1871 1.42836 11.1871H3.14265C3.2942 11.1871 3.43954 11.2473 3.54671 11.3544C3.65387 11.4616 3.71408 11.607 3.71408 11.7585V16.3299Z" stroke="black" stroke-width="1.14286" stroke-linecap="round" stroke-linejoin="round"/>
</svg>
