<svg width="20" height="20" viewBox="0 0 20 20" fill="none" xmlns="http://www.w3.org/2000/svg">
<mask id="mask0_713_35218" style="mask-type:alpha" maskUnits="userSpaceOnUse" x="0" y="0" width="20" height="20">
<rect width="20" height="20" fill="#D9D9D9"/>
</mask>
<g mask="url(#mask0_713_35218)">
<path d="M3.33203 15.8337V14.167H4.9987V8.33366C4.9987 7.18088 5.34592 6.15644 6.04036 5.26033C6.73481 4.36477 7.63759 3.7781 8.7487 3.50033V2.91699C8.7487 2.56977 8.87036 2.27477 9.1137 2.03199C9.35648 1.78866 9.65148 1.66699 9.9987 1.66699C10.3459 1.66699 10.6409 1.78866 10.8837 2.03199C11.127 2.27477 11.2487 2.56977 11.2487 2.91699V3.50033C12.3598 3.7781 13.2626 4.36477 13.957 5.26033C14.6515 6.15644 14.9987 7.18088 14.9987 8.33366V14.167H16.6654V15.8337H3.33203ZM9.9987 18.3337C9.54036 18.3337 9.14814 18.1706 8.82203 17.8445C8.49536 17.5178 8.33203 17.1253 8.33203 16.667H11.6654C11.6654 17.1253 11.5023 17.5178 11.1762 17.8445C10.8495 18.1706 10.457 18.3337 9.9987 18.3337Z" fill="#1B1B1B"/>
</g>
<circle cx="14.5833" cy="5.41634" r="2.08333" fill="#FF0000"/>
</svg>
