<svg width="15" height="15" viewBox="0 0 15 15" fill="none" xmlns="http://www.w3.org/2000/svg">
<path d="M6.6321 10.9454H8.0103V8.18901H10.7667V6.81081H8.0103V4.0544H6.6321V6.81081H3.87569V8.18901H6.6321V10.9454ZM7.3212 14.3909C6.36794 14.3909 5.47211 14.2099 4.6337 13.8479C3.79529 13.4859 3.06599 12.995 2.4458 12.3753C1.82561 11.7551 1.33474 11.0258 0.973189 10.1874C0.61164 9.349 0.430635 8.45317 0.430176 7.49991C0.430176 6.54665 0.61118 5.65082 0.973189 4.81241C1.3352 3.974 1.82607 3.2447 2.4458 2.62451C3.06599 2.00432 3.79529 1.51345 4.6337 1.1519C5.47211 0.79035 6.36794 0.609346 7.3212 0.608887C8.27446 0.608887 9.17029 0.789891 10.0087 1.1519C10.8471 1.51391 11.5764 2.00478 12.1966 2.62451C12.8168 3.2447 13.3079 3.974 13.6699 4.81241C14.0319 5.65082 14.2127 6.54665 14.2122 7.49991C14.2122 8.45317 14.0312 9.349 13.6692 10.1874C13.3072 11.0258 12.8163 11.7551 12.1966 12.3753C11.5764 12.9955 10.8471 13.4866 10.0087 13.8486C9.17029 14.2106 8.27446 14.3914 7.3212 14.3909ZM7.3212 13.0127C8.8602 13.0127 10.1637 12.4787 11.2319 11.4106C12.3 10.3425 12.834 9.03891 12.834 7.49991C12.834 5.96092 12.3 4.65736 11.2319 3.58926C10.1637 2.52115 8.8602 1.98709 7.3212 1.98709C5.78221 1.98709 4.47865 2.52115 3.41054 3.58926C2.34244 4.65736 1.80838 5.96092 1.80838 7.49991C1.80838 9.03891 2.34244 10.3425 3.41054 11.4106C4.47865 12.4787 5.78221 13.0127 7.3212 13.0127Z" fill="#FAFAFA"/>
</svg>
