<svg width="88" height="88" viewBox="0 0 88 88" fill="none" xmlns="http://www.w3.org/2000/svg">
<g clip-path="url(#clip0_2491_103289)">
<path fill-rule="evenodd" clip-rule="evenodd" d="M44 88C68.3005 88 88 68.3005 88 44C88 19.6995 68.3005 0 44 0C19.6995 0 0 19.6995 0 44C0 68.3005 19.6995 88 44 88Z" fill="#FFD960" fill-opacity="0.4"/>
<path fill-rule="evenodd" clip-rule="evenodd" d="M43.9905 -2.26498e-06C42.2317 -2.26498e-06 40.806 1.42749 40.806 3.1884C40.806 4.94931 42.2317 6.37681 43.9905 6.37681C64.7438 6.37681 81.5677 23.2213 81.5677 44C81.5677 64.7787 64.7438 81.6232 43.9905 81.6232C34.0831 81.6232 24.7901 77.7718 17.8223 71.001C16.5602 69.7746 14.5441 69.8048 13.3192 71.0684C12.0943 72.332 12.1245 74.3506 13.3866 75.577C21.5312 83.4913 32.4101 88 43.9905 88C68.2613 88 87.9367 68.3005 87.9367 44C87.9367 19.6995 68.2613 -2.26498e-06 43.9905 -2.26498e-06Z" fill="#FFCC2A"/>
<path d="M32.1349 42.7924C30.9895 44.3429 30.5845 45.2368 30.5845 46.466C30.5845 48.5613 32.2327 50.1816 34.4397 50.1816C36.6187 50.1816 38.2391 48.659 38.2391 46.48C38.2391 44.4127 36.8143 42.9321 34.7051 42.9321C34.4537 42.9321 34.1883 42.974 33.9368 43.0438L36.3813 39.7892H34.3419L32.1349 42.7924ZM32.4143 46.48C32.4143 45.2508 33.2245 44.3987 34.4397 44.3987C35.613 44.3987 36.4372 45.2508 36.4372 46.48C36.4372 47.7232 35.5991 48.5892 34.4397 48.5892C33.2384 48.5892 32.4143 47.7232 32.4143 46.48ZM38.1047 39.7892V41.4375H43.6501L39.8787 50H41.7365L45.4381 41.4375V39.7892H38.1047ZM51.3339 42.2756C51.3339 40.7111 50.2164 39.5936 48.6659 39.5936C47.1154 39.5936 45.998 40.7111 45.998 42.2756C45.998 43.854 47.1154 44.9575 48.6659 44.9575C50.2164 44.9575 51.3339 43.854 51.3339 42.2756ZM56.9351 39.8032H55.231L47.4786 50H49.1827L56.9351 39.8032ZM49.9789 42.2756C49.9789 43.0857 49.4481 43.6444 48.6659 43.6444C47.8977 43.6444 47.3669 43.0857 47.3669 42.2756C47.3669 41.4654 47.8837 40.9067 48.6659 40.9067C49.4481 40.9067 49.9789 41.4654 49.9789 42.2756ZM58.4297 47.4997C58.4297 45.9352 57.3262 44.8178 55.7758 44.8178C54.2113 44.8178 53.1078 45.9352 53.1078 47.4997C53.1078 49.0641 54.2113 50.1816 55.7758 50.1816C57.3262 50.1816 58.4297 49.0641 58.4297 47.4997ZM57.0748 47.4997C57.0748 48.3098 56.544 48.8686 55.7758 48.8686C54.9935 48.8686 54.4627 48.3098 54.4627 47.4997C54.4627 46.6895 54.9935 46.1308 55.7758 46.1308C56.544 46.1308 57.0748 46.6895 57.0748 47.4997Z" fill="black"/>
</g>
<defs>
<clipPath id="clip0_2491_103289">
<rect width="88" height="88" fill="white"/>
</clipPath>
</defs>
</svg>
