<svg width="20" height="20" viewBox="0 0 20 20" fill="none" xmlns="http://www.w3.org/2000/svg">
<path d="M15.875 7.33329C17.6442 7.33329 19.0833 5.89413 19.0833 4.12496C19.0833 2.35579 17.6442 0.916626 15.875 0.916626C14.1058 0.916626 12.6667 2.35579 12.6667 4.12496C12.6667 5.89413 14.1058 7.33329 15.875 7.33329ZM17.25 14.6666V8.97413C16.7917 9.10246 16.3333 9.16663 15.875 9.16663H15.4167V14.6666C15.4167 16.1883 14.1883 17.4166 12.6667 17.4166H5.33333C3.81167 17.4166 2.58333 16.1883 2.58333 14.6666V7.33329C2.58333 5.81163 3.81167 4.58329 5.33333 4.58329H10.8333V4.12496C10.8333 3.66663 10.8975 3.20829 11.0258 2.74996H5.33333C2.80333 2.74996 0.75 4.80329 0.75 7.33329V14.6666C0.75 17.1966 2.80333 19.25 5.33333 19.25H12.6667C15.1967 19.25 17.25 17.1966 17.25 14.6666Z" fill="#757575"/>
</svg>
