<svg width="22" height="22" viewBox="0 0 22 22" fill="none" xmlns="http://www.w3.org/2000/svg">
<path d="M11 13.3077V21M7.15385 21H14.8462M5.61538 8.6923C4.39131 8.6923 3.21737 8.20604 2.35181 7.34048C1.48626 6.47493 1 5.30099 1 4.07691V2.53845H6.38462V8.6923H5.61538ZM16.3846 8.6923C17.6087 8.6923 18.7826 8.20604 19.6482 7.34048C20.5137 6.47493 21 5.30099 21 4.07691V2.53845H15.6154V8.6923H16.3846Z" stroke="black" stroke-width="2" stroke-linecap="round" stroke-linejoin="round"/>
<path d="M15.6155 8.69231C15.6155 9.91638 15.1293 11.0903 14.2637 11.9559C13.3982 12.8214 12.2242 13.3077 11.0002 13.3077C9.77607 13.3077 8.60213 12.8214 7.73658 11.9559C6.87103 11.0903 6.38477 9.91638 6.38477 8.69231V1H15.6155V8.69231Z" stroke="black" stroke-width="2" stroke-linecap="round" stroke-linejoin="round"/>
</svg>
