<svg width="59" height="59" viewBox="0 0 59 59" fill="none" xmlns="http://www.w3.org/2000/svg">
<circle cx="29.3563" cy="29.3544" r="29.3544" fill="#FFCC2A"/>
<path d="M25.015 33.4563C19.4397 33.4563 14.6777 34.3629 14.6777 37.9864C14.6777 41.6127 19.4094 42.5505 25.015 42.5505C30.5904 42.5505 35.3524 41.6439 35.3524 38.0204C35.3524 34.3941 30.6207 33.4563 25.015 33.4563Z" fill="#020202"/>
<path d="M25.014 30.0023C28.8112 30.0023 31.8541 26.8654 31.8541 22.9511C31.8541 19.0368 28.8112 15.8999 25.014 15.8999C21.2182 15.8999 18.1738 19.0368 18.1738 22.9511C18.1738 26.8654 21.2182 30.0023 25.014 30.0023Z" fill="#020202"/>
<path d="M34.6127 23.079C34.6127 25.0723 34.0319 26.9323 33.0135 28.4773C32.9075 28.6362 33.0011 28.8504 33.1855 28.8845C33.4415 28.9285 33.7044 28.9554 33.9727 28.9611C36.6427 29.0335 39.0389 27.2614 39.7009 24.5928C40.6821 20.633 37.803 17.0776 34.1351 17.0776C33.7374 17.0776 33.3562 17.1202 32.9846 17.1982C32.9336 17.2096 32.8786 17.2351 32.8511 17.2805C32.8153 17.3387 32.8414 17.4139 32.8772 17.4635C33.9796 19.0568 34.6127 20.9962 34.6127 23.079Z" fill="#020202"/>
<path d="M42.5 33.9176C42.0114 32.8437 40.8319 32.1073 39.0373 31.7455C38.1908 31.5327 35.8979 31.2305 33.7661 31.2731C33.7344 31.2773 33.7165 31.3 33.7138 31.3142C33.7096 31.3369 33.7193 31.371 33.7606 31.3951C34.746 31.8973 38.5542 34.0822 38.0752 38.6903C38.0546 38.8918 38.2101 39.062 38.4042 39.0337C39.3414 38.896 41.7527 38.3612 42.5 36.6984C42.9143 35.8188 42.9143 34.7973 42.5 33.9176Z" fill="#020202"/>
</svg>
