<svg width="32" height="24" viewBox="0 0 32 24" fill="none" xmlns="http://www.w3.org/2000/svg">
<path fill-rule="evenodd" clip-rule="evenodd" d="M4 0C2.93913 0 1.92172 0.421427 1.17157 1.17157C0.421427 1.92172 0 2.93913 0 4V12C0 13.0609 0.421427 14.0783 1.17157 14.8284C1.92172 15.5786 2.93913 16 4 16V4H24C24 2.93913 23.5786 1.92172 22.8284 1.17157C22.0783 0.421427 21.0609 0 20 0H4ZM8 12C8 10.9391 8.42143 9.92172 9.17157 9.17157C9.92172 8.42143 10.9391 8 12 8H28C29.0609 8 30.0783 8.42143 30.8284 9.17157C31.5786 9.92172 32 10.9391 32 12V20C32 21.0609 31.5786 22.0783 30.8284 22.8284C30.0783 23.5786 29.0609 24 28 24H12C10.9391 24 9.92172 23.5786 9.17157 22.8284C8.42143 22.0783 8 21.0609 8 20V12ZM20 20C21.0609 20 22.0783 19.5786 22.8284 18.8284C23.5786 18.0783 24 17.0609 24 16C24 14.9391 23.5786 13.9217 22.8284 13.1716C22.0783 12.4214 21.0609 12 20 12C18.9391 12 17.9217 12.4214 17.1716 13.1716C16.4214 13.9217 16 14.9391 16 16C16 17.0609 16.4214 18.0783 17.1716 18.8284C17.9217 19.5786 18.9391 20 20 20Z" fill="black"/>
</svg>
