<svg width="71" height="71" viewBox="0 0 71 71" fill="none" xmlns="http://www.w3.org/2000/svg">
<circle cx="35.0193" cy="35.0193" r="35.0193" fill="#FFCC2A"/>
<path fill-rule="evenodd" clip-rule="evenodd" d="M21.8852 21.8871C20.7243 21.8871 19.6108 22.3483 18.7899 23.1692C17.969 23.9901 17.5078 25.1035 17.5078 26.2645V35.0193C17.5078 36.1803 17.969 37.2937 18.7899 38.1146C19.6108 38.9355 20.7243 39.3967 21.8852 39.3967V26.2645H43.7723C43.7723 25.1035 43.3111 23.9901 42.4902 23.1692C41.6692 22.3483 40.5558 21.8871 39.3949 21.8871H21.8852ZM26.2626 35.0193C26.2626 33.8584 26.7238 32.7449 27.5447 31.924C28.3657 31.1031 29.4791 30.6419 30.64 30.6419H48.1497C49.3106 30.6419 50.424 31.1031 51.245 31.924C52.0659 32.7449 52.5271 33.8584 52.5271 35.0193V43.7741C52.5271 44.9351 52.0659 46.0485 51.245 46.8694C50.424 47.6903 49.3106 48.1515 48.1497 48.1515H30.64C29.4791 48.1515 28.3657 47.6903 27.5447 46.8694C26.7238 46.0485 26.2626 44.9351 26.2626 43.7741V35.0193ZM39.3949 43.7741C40.5558 43.7741 41.6692 43.3129 42.4902 42.492C43.3111 41.6711 43.7723 40.5577 43.7723 39.3967C43.7723 38.2358 43.3111 37.1223 42.4902 36.3014C41.6692 35.4805 40.5558 35.0193 39.3949 35.0193C38.2339 35.0193 37.1205 35.4805 36.2996 36.3014C35.4786 37.1223 35.0174 38.2358 35.0174 39.3967C35.0174 40.5577 35.4786 41.6711 36.2996 42.492C37.1205 43.3129 38.2339 43.7741 39.3949 43.7741Z" fill="black"/>
</svg>
