<svg width="48" height="48" viewBox="0 0 48 48" fill="none" xmlns="http://www.w3.org/2000/svg">
<circle cx="24" cy="24" r="24" fill="#FFB4B4"/>
<path d="M21.4517 26.4594C16.8934 26.4594 13 27.2006 13 30.1631C13 33.128 16.8686 33.8948 21.4517 33.8948C26.0101 33.8948 29.9035 33.1535 29.9035 30.191C29.9035 27.2261 26.0349 26.4594 21.4517 26.4594Z" fill="#020202"/>
<path d="M21.4517 23.6353C24.5563 23.6353 27.0442 21.0706 27.0442 17.8703C27.0442 14.6699 24.5563 12.1053 21.4517 12.1053C18.3483 12.1053 15.8593 14.6699 15.8593 17.8703C15.8593 21.0706 18.3483 23.6353 21.4517 23.6353Z" fill="#020202"/>
<path d="M29.2992 17.9748C29.2992 19.6046 28.8244 21.1253 27.9917 22.3885C27.9051 22.5184 27.9816 22.6935 28.1324 22.7214C28.3417 22.7573 28.5566 22.7794 28.776 22.784C30.959 22.8432 32.918 21.3944 33.4593 19.2125C34.2616 15.975 31.9076 13.0682 28.9088 13.0682C28.5836 13.0682 28.2719 13.103 27.9681 13.1668C27.9264 13.176 27.8814 13.1969 27.8589 13.234C27.8297 13.2816 27.8511 13.3431 27.8803 13.3837C28.7816 14.6863 29.2992 16.272 29.2992 17.9748Z" fill="#020202"/>
<path d="M35.7459 26.8366C35.3465 25.9585 34.3821 25.3565 32.9148 25.0607C32.2228 24.8867 30.3481 24.6396 28.6051 24.6744C28.5792 24.6779 28.5646 24.6965 28.5624 24.7081C28.559 24.7266 28.5669 24.7545 28.6006 24.7742C29.4063 25.1848 32.5199 26.9711 32.1283 30.7387C32.1114 30.9034 32.2385 31.0426 32.3972 31.0194C33.1635 30.9069 35.1349 30.4696 35.7459 29.1101C36.0846 28.3909 36.0846 27.5558 35.7459 26.8366Z" fill="#020202"/>
</svg>
