<svg width="24" height="24" viewBox="0 0 24 24" fill="none" xmlns="http://www.w3.org/2000/svg">
<path d="M20.39 20.09L6.3 6L2.3 2L1 3.24L4.46 6.7L2.89 11.24V19.24C2.89 19.5052 2.99536 19.7596 3.18289 19.9471C3.37043 20.1346 3.62478 20.24 3.89 20.24H4.89C5.15522 20.24 5.40957 20.1346 5.59711 19.9471C5.78464 19.7596 5.89 19.5052 5.89 19.24V18.24H16L20.73 22.97L22 21.7L20.39 20.09ZM6.39 15.24C5.99218 15.24 5.61064 15.082 5.32934 14.8007C5.04803 14.5194 4.89 14.1378 4.89 13.74C4.89 13.3422 5.04803 12.9606 5.32934 12.6793C5.61064 12.398 5.99218 12.24 6.39 12.24C6.78782 12.24 7.16936 12.398 7.45066 12.6793C7.73196 12.9606 7.89 13.3422 7.89 13.74C7.89 14.1378 7.73196 14.5194 7.45066 14.8007C7.16936 15.082 6.78782 15.24 6.39 15.24ZM4.89 10.24L5.67 7.91L8 10.24H4.89ZM17.39 5.74L18.89 10.24H13.09L16.01 13.16C16.39 12.41 17.26 12.1 18.01 12.45C18.76 12.81 19.07 13.71 18.72 14.45C18.57 14.74 18.32 15.01 18.01 15.16L20.89 18.04V11.24L18.81 5.24C18.6 4.64 18.03 4.24 17.39 4.24H7.09L8.59 5.74H17.39Z" fill="black"/>
</svg>
