<svg width="11" height="11" viewBox="0 0 11 11" fill="none" xmlns="http://www.w3.org/2000/svg">
<path d="M4.64648 5.65588V7.15588C4.64648 7.29755 4.69448 7.41638 4.79048 7.51238C4.88648 7.60838 5.00515 7.65622 5.14648 7.65588C5.28815 7.65588 5.40698 7.60788 5.50298 7.51188C5.59898 7.41588 5.64682 7.29722 5.64648 7.15588V5.65588H7.14648C7.28815 5.65588 7.40698 5.60788 7.50298 5.51188C7.59898 5.41588 7.64682 5.29722 7.64648 5.15588C7.64648 5.01422 7.59848 4.89538 7.50248 4.79938C7.40648 4.70338 7.28782 4.65555 7.14648 4.65588H5.64648V3.15588C5.64648 3.01422 5.59848 2.89538 5.50248 2.79938C5.40648 2.70338 5.28782 2.65555 5.14648 2.65588C5.00482 2.65588 4.88598 2.70388 4.78998 2.79988C4.69398 2.89588 4.64615 3.01455 4.64648 3.15588V4.65588H3.14648C3.00482 4.65588 2.88598 4.70388 2.78998 4.79988C2.69398 4.89588 2.64615 5.01455 2.64648 5.15588C2.64648 5.29755 2.69448 5.41638 2.79048 5.51238C2.88648 5.60838 3.00515 5.65622 3.14648 5.65588H4.64648ZM5.14648 10.1559C4.45482 10.1559 3.80482 10.0246 3.19648 9.76188C2.58815 9.49922 2.05898 9.14305 1.60898 8.69338C1.15898 8.24338 0.802818 7.71422 0.540484 7.10588C0.278151 6.49755 0.146818 5.84755 0.146484 5.15588C0.146484 4.46422 0.277818 3.81422 0.540484 3.20588C0.803151 2.59755 1.15932 2.06838 1.60898 1.61838C2.05898 1.16838 2.58815 0.812217 3.19648 0.549884C3.80482 0.287551 4.45482 0.156217 5.14648 0.155884C5.83815 0.155884 6.48815 0.287217 7.09648 0.549884C7.70482 0.812551 8.23398 1.16872 8.68398 1.61838C9.13398 2.06838 9.49032 2.59755 9.75298 3.20588C10.0157 3.81422 10.1468 4.46422 10.1465 5.15588C10.1465 5.84755 10.0152 6.49755 9.75248 7.10588C9.48982 7.71422 9.13365 8.24338 8.68398 8.69338C8.23398 9.14338 7.70482 9.49972 7.09648 9.76238C6.48815 10.0251 5.83815 10.1562 5.14648 10.1559ZM5.14648 9.15588C6.26315 9.15588 7.20898 8.76838 7.98398 7.99338C8.75898 7.21838 9.14648 6.27255 9.14648 5.15588C9.14648 4.03922 8.75898 3.09338 7.98398 2.31838C7.20898 1.54338 6.26315 1.15588 5.14648 1.15588C4.02982 1.15588 3.08398 1.54338 2.30898 2.31838C1.53398 3.09338 1.14648 4.03922 1.14648 5.15588C1.14648 6.27255 1.53398 7.21838 2.30898 7.99338C3.08398 8.76838 4.02982 9.15588 5.14648 9.15588Z" fill="#757575"/>
</svg>
