<svg width="19" height="18" viewBox="0 0 19 18" fill="none" xmlns="http://www.w3.org/2000/svg">
<path d="M6.33594 10.1983C6.33594 9.06628 6.33594 8.50068 6.6909 8.15028C7.04505 7.79828 7.6154 7.79828 8.75611 7.79828H10.3696C11.5111 7.79828 12.0814 7.79828 12.4348 8.15028C12.7897 8.50148 12.7897 9.06708 12.7897 10.1983V17.3983V14.9983C12.7897 13.8663 12.7897 13.3007 13.1447 12.9503C13.4988 12.5983 14.0692 12.5983 15.2099 12.5983C16.3514 12.5983 16.9218 12.5983 17.2751 12.9503C17.6301 13.3015 17.6301 13.8671 17.6301 14.9983V17.3983M6.33594 13.3983V17.3983C6.33594 16.2671 6.33594 15.7015 5.98098 15.3503C5.62764 14.9983 5.05729 14.9983 3.91577 14.9983C2.77507 14.9983 2.20471 14.9983 1.85056 15.3503C1.49561 15.7007 1.49561 16.2663 1.49561 17.3983" stroke="black" stroke-width="1.2" stroke-linecap="round"/>
<path d="M8.87403 2.21665C9.18059 1.67025 9.33386 1.39825 9.56297 1.39825C9.79208 1.39825 9.94536 1.67025 10.2519 2.21665L10.331 2.35745C10.4181 2.51265 10.4617 2.58945 10.5294 2.64065C10.598 2.69185 10.6827 2.71105 10.8521 2.74865L11.0054 2.78385C11.6008 2.91745 11.8984 2.98385 11.9694 3.20945C12.0404 3.43585 11.8371 3.67105 11.4313 4.14145L11.3265 4.26305C11.2111 4.39665 11.153 4.46305 11.1272 4.54625C11.1014 4.62945 11.1103 4.71825 11.1272 4.89665L11.1433 5.05905C11.2047 5.68705 11.2353 6.00145 11.0506 6.14065C10.865 6.28065 10.5859 6.15265 10.0285 5.89825L9.88485 5.83265C9.72593 5.76065 9.64687 5.72385 9.56297 5.72385C9.47907 5.72385 9.40001 5.76065 9.24109 5.83265L9.09749 5.89825C8.54005 6.15265 8.26092 6.28065 8.07538 6.14065C7.88983 6.00145 7.92129 5.68705 7.9826 5.05905L7.99874 4.89665C8.01568 4.71825 8.02455 4.62945 7.99874 4.54625C7.97292 4.46385 7.91484 4.39665 7.79948 4.26305L7.6946 4.14145C7.28882 3.67105 7.08553 3.43585 7.15652 3.20945C7.22751 2.98385 7.52519 2.91745 8.12055 2.78385L8.27383 2.74865C8.44324 2.71105 8.52795 2.69265 8.59652 2.64065C8.66428 2.58945 8.70785 2.51265 8.79497 2.35745L8.87403 2.21665Z" stroke="black" stroke-width="1.2"/>
</svg>
