<svg width="15" height="16" viewBox="0 0 15 16" fill="none" xmlns="http://www.w3.org/2000/svg">
<path fill-rule="evenodd" clip-rule="evenodd" d="M7.986 0C8.54291 0 9.08427 0.227016 9.47239 0.621592C9.85974 1.01848 10.0736 1.56286 10.0573 2.11496C10.0589 2.23927 10.1001 2.3829 10.1748 2.50876C10.2984 2.71724 10.4937 2.86395 10.7254 2.92418C10.9572 2.98132 11.1999 2.95044 11.406 2.82921C12.4016 2.26476 13.6687 2.60296 14.2372 3.58361L14.7218 4.41678C14.7343 4.43917 14.7452 4.46079 14.7545 4.48318C15.2694 5.44916 14.9256 6.66532 13.9689 7.2205C13.8297 7.30003 13.7169 7.41123 13.6391 7.54558C13.5185 7.75329 13.4851 8.00039 13.5458 8.2274C13.608 8.45905 13.7566 8.65132 13.9658 8.77023C14.4379 9.03972 14.7903 9.49375 14.931 10.018C15.0718 10.5416 14.9948 11.1099 14.7203 11.5786L14.2038 12.4326C13.6352 13.4024 12.3682 13.7383 11.3827 13.1731C11.2512 13.0982 11.0996 13.0573 10.9487 13.0534H10.944C10.7192 13.0534 10.4882 13.1484 10.3202 13.3144C10.1499 13.4835 10.0565 13.709 10.0581 13.9484C10.0526 15.0827 9.12316 16 7.986 16H7.01141C5.86881 16 4.93933 15.078 4.93933 13.9437C4.93777 13.804 4.89733 13.6588 4.82188 13.5329C4.69976 13.3214 4.5022 13.17 4.2743 13.1098C4.04796 13.0496 3.79984 13.0828 3.59605 13.2001C3.10759 13.4704 2.53279 13.536 2.00699 13.3893C1.48197 13.2418 1.02851 12.8835 0.7625 12.4087L0.27637 11.577C-0.292207 10.5979 0.0461394 9.34318 1.03084 8.77796C1.31008 8.61812 1.48353 8.32006 1.48353 8.00039C1.48353 7.68071 1.31008 7.38188 1.03084 7.22205C0.0453616 6.65373 -0.292207 5.39588 0.275593 4.41678L0.802946 3.55736C1.36375 2.58906 2.63157 2.24777 3.62017 2.81145C3.75473 2.89098 3.90095 2.93113 4.04952 2.93268C4.53409 2.93268 4.93933 2.53578 4.94711 2.04778C4.94399 1.50958 5.15789 0.993002 5.54757 0.60306C5.93881 0.213889 6.45839 0 7.01141 0H7.986ZM7.986 1.15825H7.01141C6.77029 1.15825 6.54472 1.25168 6.37438 1.42001C6.20482 1.58911 6.11226 1.81381 6.11382 2.05318C6.09748 3.18209 5.168 4.09092 4.04252 4.09092C3.68161 4.08706 3.33393 3.99054 3.03214 3.8114C2.60824 3.57203 2.05444 3.71951 1.80632 4.14806L1.27974 5.00748C1.03862 5.4229 1.18641 5.97191 1.61576 6.21978C2.25278 6.58578 2.65024 7.26838 2.65024 8.00039C2.65024 8.7324 2.25278 9.41422 1.6142 9.781C1.18718 10.0265 1.0394 10.5725 1.28674 10.9972L1.77754 11.8373C1.89888 12.0542 2.09722 12.211 2.32667 12.2751C2.55535 12.3384 2.80736 12.3114 3.01737 12.1956C3.32615 12.0156 3.6855 11.9222 4.0464 11.9222C4.22452 11.9222 4.40264 11.9446 4.57687 11.9909C5.10267 12.1315 5.55924 12.4805 5.82992 12.9492C6.0057 13.2434 6.10293 13.587 6.10604 13.9376C6.10604 14.4395 6.51206 14.8418 7.01141 14.8418H7.986C8.48302 14.8418 8.88904 14.4418 8.89137 13.9484C8.88826 13.4032 9.10293 12.8851 9.49573 12.4952C9.88308 12.1106 10.4244 11.8797 10.9658 11.8952C11.3205 11.9037 11.6619 11.9986 11.9629 12.1685C12.3962 12.4148 12.9492 12.2681 13.1996 11.8434L13.7161 10.9887C13.8312 10.7918 13.8647 10.5447 13.8032 10.3169C13.7426 10.0891 13.5901 9.89141 13.3848 9.77482C12.9041 9.49993 12.5611 9.05671 12.4187 8.52546C12.2779 8.00425 12.3549 7.43516 12.6295 6.96646C12.8084 6.65759 13.0705 6.39738 13.3848 6.21823C13.8063 5.97346 13.9541 5.42599 13.7091 4.99976C13.699 4.98277 13.6897 4.96501 13.6819 4.94648L13.2261 4.16196C12.978 3.73341 12.4257 3.58593 11.9925 3.8307C11.5242 4.10559 10.9673 4.18435 10.4322 4.04459C9.89785 3.90715 9.44984 3.57126 9.1706 3.09715C8.99171 2.80064 8.89448 2.45548 8.89137 2.10415C8.89837 1.84007 8.80503 1.60301 8.63547 1.42927C8.46669 1.25631 8.22946 1.15825 7.986 1.15825ZM7.50213 5.38515C8.9543 5.38515 10.1358 6.55883 10.1358 8.00046C10.1358 9.44209 8.9543 10.6142 7.50213 10.6142C6.04996 10.6142 4.86847 9.44209 4.86847 8.00046C4.86847 6.55883 6.04996 5.38515 7.50213 5.38515ZM7.50213 6.54339C6.69321 6.54339 6.03518 7.19741 6.03518 8.00046C6.03518 8.80351 6.69321 9.45599 7.50213 9.45599C8.31105 9.45599 8.96907 8.80351 8.96907 8.00046C8.96907 7.19741 8.31105 6.54339 7.50213 6.54339Z" fill="#8A8A8A"/>
</svg>
