<svg width="15" height="17" viewBox="0 0 15 17" fill="none" xmlns="http://www.w3.org/2000/svg">
<path fill-rule="evenodd" clip-rule="evenodd" d="M7.986 0.889954C8.54291 0.889954 9.08427 1.11697 9.47239 1.51155C9.85974 1.90844 10.0736 2.45281 10.0573 3.00491C10.0589 3.12923 10.1001 3.27285 10.1748 3.39871C10.2984 3.6072 10.4937 3.75391 10.7254 3.81414C10.9572 3.87128 11.1999 3.84039 11.406 3.71916C12.4016 3.15471 13.6687 3.49292 14.2372 4.47356L14.7218 5.30673C14.7343 5.32912 14.7452 5.35074 14.7545 5.37313C15.2694 6.33911 14.9256 7.55527 13.9689 8.11045C13.8297 8.18999 13.7169 8.30118 13.6391 8.43554C13.5185 8.64325 13.4851 8.89034 13.5458 9.11736C13.608 9.34901 13.7566 9.54127 13.9658 9.66019C14.4379 9.92967 14.7903 10.3837 14.931 10.908C15.0718 11.4315 14.9948 11.9998 14.7203 12.4685L14.2038 13.3226C13.6352 14.2924 12.3682 14.6283 11.3827 14.0631C11.2512 13.9882 11.0996 13.9472 10.9487 13.9434H10.944C10.7192 13.9434 10.4882 14.0384 10.3202 14.2044C10.1499 14.3735 10.0565 14.5989 10.0581 14.8383C10.0526 15.9726 9.12316 16.89 7.986 16.89H7.01141C5.86881 16.89 4.93933 15.968 4.93933 14.8337C4.93777 14.6939 4.89733 14.5488 4.82188 14.4229C4.69976 14.2113 4.5022 14.06 4.2743 13.9997C4.04796 13.9395 3.79984 13.9727 3.59605 14.0901C3.10759 14.3603 2.53279 14.426 2.00699 14.2793C1.48197 14.1318 1.02851 13.7735 0.7625 13.2986L0.27637 12.467C-0.292207 11.4879 0.0461394 10.2331 1.03084 9.66791C1.31008 9.50807 1.48353 9.21002 1.48353 8.89034C1.48353 8.57066 1.31008 8.27184 1.03084 8.112C0.0453616 7.54369 -0.292207 6.28583 0.275593 5.30673L0.802946 4.44731C1.36375 3.47902 2.63157 3.13772 3.62017 3.7014C3.75473 3.78093 3.90095 3.82109 4.04952 3.82263C4.53409 3.82263 4.93933 3.42574 4.94711 2.93773C4.94399 2.39953 5.15789 1.88296 5.54757 1.49301C5.93881 1.10384 6.45839 0.889954 7.01141 0.889954H7.986ZM7.986 2.0482H7.01141C6.77029 2.0482 6.54472 2.14163 6.37438 2.30996C6.20482 2.47907 6.11226 2.70377 6.11382 2.94314C6.09748 4.07204 5.168 4.98088 4.04252 4.98088C3.68161 4.97702 3.33393 4.88049 3.03214 4.70135C2.60824 4.46198 2.05444 4.60947 1.80632 5.03802L1.27974 5.89743C1.03862 6.31286 1.18641 6.86187 1.61576 7.10973C2.25278 7.47574 2.65024 8.15833 2.65024 8.89034C2.65024 9.62235 2.25278 10.3042 1.6142 10.6709C1.18718 10.9165 1.0394 11.4624 1.28674 11.8871L1.77754 12.7272C1.89888 12.9442 2.09722 13.1009 2.32667 13.165C2.55535 13.2284 2.80736 13.2013 3.01737 13.0855C3.32615 12.9056 3.6855 12.8122 4.0464 12.8122C4.22452 12.8122 4.40264 12.8346 4.57687 12.8809C5.10267 13.0214 5.55924 13.3704 5.82992 13.8391C6.0057 14.1333 6.10293 14.4769 6.10604 14.8275C6.10604 15.3294 6.51206 15.7317 7.01141 15.7317H7.986C8.48302 15.7317 8.88904 15.3317 8.89137 14.8383C8.88826 14.2932 9.10293 13.775 9.49573 13.3851C9.88308 13.0006 10.4244 12.7697 10.9658 12.7851C11.3205 12.7936 11.6619 12.8886 11.9629 13.0585C12.3962 13.3048 12.9492 13.1581 13.1996 12.7334L13.7161 11.8786C13.8312 11.6817 13.8647 11.4346 13.8032 11.2068C13.7426 10.979 13.5901 10.7814 13.3848 10.6648C12.9041 10.3899 12.5611 9.94666 12.4187 9.41541C12.2779 8.8942 12.3549 8.32512 12.6295 7.85641C12.8084 7.54755 13.0705 7.28733 13.3848 7.10819C13.8063 6.86341 13.9541 6.31595 13.7091 5.88971C13.699 5.87273 13.6897 5.85497 13.6819 5.83643L13.2261 5.05192C12.978 4.62336 12.4257 4.47588 11.9925 4.72066C11.5242 4.99555 10.9673 5.07431 10.4322 4.93455C9.89785 4.7971 9.44984 4.46121 9.1706 3.9871C8.99171 3.69059 8.89448 3.34543 8.89137 2.9941C8.89837 2.73002 8.80503 2.49297 8.63547 2.31923C8.46669 2.14626 8.22946 2.0482 7.986 2.0482ZM7.50213 6.2751C8.9543 6.2751 10.1358 7.44879 10.1358 8.89042C10.1358 10.332 8.9543 11.5042 7.50213 11.5042C6.04996 11.5042 4.86847 10.332 4.86847 8.89042C4.86847 7.44879 6.04996 6.2751 7.50213 6.2751ZM7.50213 7.43334C6.69321 7.43334 6.03518 8.08737 6.03518 8.89042C6.03518 9.69347 6.69321 10.3459 7.50213 10.3459C8.31105 10.3459 8.96907 9.69347 8.96907 8.89042C8.96907 8.08737 8.31105 7.43334 7.50213 7.43334Z" fill="black"/>
</svg>
