<svg width="18" height="12" viewBox="0 0 18 12" fill="none" xmlns="http://www.w3.org/2000/svg">
<path d="M17.7 4.8C17.5875 4.6125 16.4771 4.13288 16.4771 4.13288C16.6703 4.03313 16.8022 4.0125 16.8022 3.6C16.8022 3.15 16.8 3 16.5 3H15.4823C15.4781 2.991 15.4736 2.98162 15.4695 2.97225C14.8125 1.5375 14.7244 1.17488 13.7445 0.686625C12.4301 0.0329999 9.966 0 9 0C8.034 0 5.56988 0.0329999 4.25663 0.686625C3.27562 1.17412 3.3 1.425 2.53163 2.97225C2.53163 2.97637 2.52375 2.98725 2.51663 3H1.49775C1.2 3 1.19775 3.15 1.19775 3.6C1.19775 4.0125 1.32975 4.03313 1.52288 4.13288C1.52288 4.13288 0.45 4.65 0.3 4.8C0.15 4.95 0 6 0 7.8C0 9.6 0.15 11.4 0.15 11.4H0.59775C0.59775 11.925 0.675 12 0.9 12H3.9C4.125 12 4.2 11.925 4.2 11.4H13.8C13.8 11.925 13.875 12 14.1 12H17.175C17.325 12 17.4 11.8875 17.4 11.4H17.85C17.85 11.4 18 9.5625 18 7.8C18 6.0375 17.8125 4.9875 17.7 4.8ZM4.09725 6.48525C3.41427 6.55992 2.7278 6.59822 2.04075 6.6C1.275 6.6 1.24875 6.64913 1.19475 6.171C1.17444 5.95216 1.18086 5.73166 1.21388 5.51438L1.2375 5.4H1.35C1.8 5.4 2.22263 5.41913 3.02063 5.65425C3.4265 5.77604 3.80825 5.9671 4.149 6.219C4.3125 6.3375 4.35 6.45 4.35 6.45L4.09725 6.48525ZM13.3658 9.18525L13.2 9.6H4.8C4.8 9.6 4.81463 9.57713 4.6125 9.18075C4.4625 8.8875 4.65 8.7 4.94663 8.5935C5.52113 8.3865 7.2 7.8 9 7.8C10.8 7.8 12.5123 8.3055 13.0688 8.5935C13.275 8.7 13.5311 8.775 13.3658 9.1875V9.18525ZM3.72825 4.06538C3.60712 4.07236 3.48572 4.07324 3.3645 4.068C3.46238 3.894 3.51675 3.70013 3.61238 3.49763C3.91238 2.86013 4.2555 2.13862 4.86638 1.8345C5.74913 1.395 7.57875 1.197 9 1.197C10.4213 1.197 12.2509 1.3935 13.1336 1.8345C13.7445 2.13862 14.0861 2.8605 14.3876 3.49763C14.484 3.702 14.5376 3.89738 14.6381 4.0725C14.5631 4.07663 14.4769 4.0725 14.271 4.06538H3.72825ZM16.7678 6.1695C16.6875 6.6375 16.7625 6.6 15.9593 6.6C15.2722 6.59822 14.5857 6.55992 13.9028 6.48525C13.7959 6.46613 13.7655 6.28575 13.851 6.219C14.19 5.9643 14.5723 5.77298 14.9794 5.65425C15.7774 5.41913 16.2266 5.38763 16.6703 5.40338C16.7 5.40451 16.7284 5.41663 16.7498 5.4374C16.7712 5.45817 16.7841 5.48612 16.7861 5.51587C16.8073 5.73416 16.8011 5.95424 16.7678 6.171V6.1695Z" fill="#020202"/>
</svg>
