<svg width="16" height="16" viewBox="0 0 16 16" fill="none" xmlns="http://www.w3.org/2000/svg">
<path d="M8 0C6.94943 0 5.90914 0.206926 4.93853 0.608964C3.96793 1.011 3.08601 1.60028 2.34315 2.34315C0.842855 3.84344 0 5.87827 0 8C0 10.1217 0.842855 12.1566 2.34315 13.6569C3.08601 14.3997 3.96793 14.989 4.93853 15.391C5.90914 15.7931 6.94943 16 8 16C10.1217 16 12.1566 15.1571 13.6569 13.6569C15.1571 12.1566 16 10.1217 16 8C16 7.072 15.832 6.152 15.512 5.288L14.232 6.568C14.344 7.04 14.4 7.52 14.4 8C14.4 9.69739 13.7257 11.3253 12.5255 12.5255C11.3253 13.7257 9.69739 14.4 8 14.4C6.30261 14.4 4.67475 13.7257 3.47452 12.5255C2.27428 11.3253 1.6 9.69739 1.6 8C1.6 6.30261 2.27428 4.67475 3.47452 3.47452C4.67475 2.27428 6.30261 1.6 8 1.6C8.48 1.6 8.96 1.656 9.432 1.768L10.72 0.48C9.848 0.168 8.928 0 8 0ZM13.6 0L10.4 3.2V4.4L8.36 6.44C8.24 6.4 8.12 6.4 8 6.4C7.57565 6.4 7.16869 6.56857 6.86863 6.86863C6.56857 7.16869 6.4 7.57565 6.4 8C6.4 8.42435 6.56857 8.83131 6.86863 9.13137C7.16869 9.43143 7.57565 9.6 8 9.6C8.42435 9.6 8.83131 9.43143 9.13137 9.13137C9.43143 8.83131 9.6 8.42435 9.6 8C9.6 7.88 9.6 7.76 9.56 7.64L11.6 5.6H12.8L16 2.4H13.6V0ZM8 3.2C6.72696 3.2 5.50606 3.70571 4.60589 4.60589C3.70571 5.50606 3.2 6.72696 3.2 8C3.2 9.27304 3.70571 10.4939 4.60589 11.3941C5.50606 12.2943 6.72696 12.8 8 12.8C9.27304 12.8 10.4939 12.2943 11.3941 11.3941C12.2943 10.4939 12.8 9.27304 12.8 8H11.2C11.2 8.84869 10.8629 9.66263 10.2627 10.2627C9.66263 10.8629 8.84869 11.2 8 11.2C7.15131 11.2 6.33737 10.8629 5.73726 10.2627C5.13714 9.66263 4.8 8.84869 4.8 8C4.8 7.15131 5.13714 6.33737 5.73726 5.73726C6.33737 5.13714 7.15131 4.8 8 4.8V3.2Z" fill="black"/>
</svg>
