<svg width="17" height="27" viewBox="0 0 17 27" fill="none" xmlns="http://www.w3.org/2000/svg">
<path d="M13.1589 26C6.49943 22.5926 -4.58933 15.6889 4.33123 15.3333C15.4819 14.8889 12.2287 13.1111 4.33123 9.11108" stroke="#020202" stroke-width="2" stroke-linecap="round"/>
<path d="M13.2248 24.4849C12.9602 24.1651 12.6426 23.7617 12.3263 23.3132C11.9404 22.7661 11.568 22.1683 11.2951 21.5854C11.0164 20.9903 10.8737 20.4784 10.8737 20.0848C10.8737 18.898 11.8875 17.8737 13.2248 17.8737C14.562 17.8737 15.5758 18.898 15.5758 20.0848C15.5758 20.4784 15.4332 20.9903 15.1545 21.5854C14.8815 22.1683 14.5091 22.7661 14.1232 23.3132C13.8069 23.7617 13.4893 24.1651 13.2248 24.4849ZM11.8065 21.4951C12.189 21.861 12.6998 22.0601 13.2248 22.0601C13.7497 22.0601 14.2605 21.861 14.643 21.4951C15.0269 21.128 15.2501 20.6215 15.2501 20.0848C15.2501 19.548 15.0269 19.0416 14.643 18.6744C14.2605 18.3085 13.7497 18.1094 13.2248 18.1094C12.6998 18.1094 12.189 18.3085 11.8065 18.6744C11.4226 19.0416 11.1994 19.548 11.1994 20.0848C11.1994 20.6215 11.4226 21.128 11.8065 21.4951Z" fill="#020202" stroke="#020202" stroke-width="1.74732"/>
<path d="M4.22475 7.48488C3.96017 7.1651 3.64261 6.76167 3.32632 6.31324C2.94038 5.76606 2.56802 5.16826 2.29506 4.58541C2.01635 3.9903 1.87366 3.47841 1.87366 3.08477C1.87366 1.89798 2.88749 0.873658 4.22475 0.873658C5.56202 0.873658 6.57585 1.89798 6.57585 3.08477C6.57585 3.47841 6.43316 3.9903 6.15445 4.58541C5.88148 5.16826 5.50912 5.76606 5.12319 6.31324C4.8069 6.76167 4.48934 7.1651 4.22475 7.48488ZM2.80647 4.49511C3.18897 4.86101 3.6998 5.06013 4.22475 5.06013C4.74971 5.06013 5.26054 4.86101 5.64304 4.49511C6.02686 4.12795 6.25011 3.62149 6.25011 3.08477C6.25011 2.54805 6.02686 2.04159 5.64304 1.67443C5.26054 1.30853 4.74971 1.10941 4.22475 1.10941C3.6998 1.10941 3.18897 1.30853 2.80647 1.67443C2.42265 2.04159 2.1994 2.54805 2.1994 3.08477C2.1994 3.62149 2.42265 4.12795 2.80647 4.49511Z" fill="#020202" stroke="#020202" stroke-width="1.74732"/>
</svg>
