<svg width="16" height="25" viewBox="0 0 16 25" fill="none" xmlns="http://www.w3.org/2000/svg">
<path d="M13.1589 24C6.49943 20.5926 -4.58933 13.6889 4.33123 13.3333C15.4819 12.8889 12.2287 11.1111 4.33123 7.11108" stroke="#FFCC2A" stroke-width="1.38461" stroke-linecap="round"/>
<path d="M12.8446 22.8204C12.6349 22.5669 12.3832 22.2473 12.1326 21.8919C11.8268 21.4583 11.5317 20.9846 11.3154 20.5227C11.0946 20.0512 10.9815 19.6455 10.9815 19.3336C10.9815 18.3932 11.7849 17.5815 12.8446 17.5815C13.9042 17.5815 14.7076 18.3932 14.7076 19.3336C14.7076 19.6455 14.5945 20.0512 14.3737 20.5227C14.1574 20.9846 13.8623 21.4583 13.5565 21.8919C13.3059 22.2473 13.0542 22.5669 12.8446 22.8204ZM11.7207 20.4512C12.0238 20.7411 12.4286 20.8989 12.8446 20.8989C13.2605 20.8989 13.6653 20.7411 13.9684 20.4512C14.2726 20.1602 14.4495 19.7589 14.4495 19.3336C14.4495 18.9083 14.2726 18.507 13.9684 18.216C13.6653 17.9261 13.2605 17.7683 12.8446 17.7683C12.4286 17.7683 12.0238 17.9261 11.7207 18.216C11.4165 18.507 11.2396 18.9083 11.2396 19.3336C11.2396 19.7589 11.4165 20.1602 11.7207 20.4512Z" fill="#FFCC2A" stroke="#FFCC2A" stroke-width="1.38461"/>
<path d="M4.48481 5.93119C4.27515 5.67779 4.0235 5.3581 3.77287 5.00276C3.46705 4.56916 3.17198 4.09545 2.95568 3.63358C2.73482 3.16201 2.62175 2.75637 2.62175 2.44444C2.62175 1.504 3.42513 0.692306 4.48481 0.692306C5.54449 0.692306 6.34788 1.504 6.34788 2.44444C6.34788 2.75637 6.2348 3.16201 6.01395 3.63358C5.79764 4.09545 5.50258 4.56916 5.19675 5.00276C4.94612 5.3581 4.69447 5.67779 4.48481 5.93119ZM3.36093 3.56203C3.66403 3.85198 4.06883 4.00976 4.48481 4.00976C4.9008 4.00976 5.30559 3.85198 5.6087 3.56203C5.91284 3.27109 6.08975 2.86976 6.08975 2.44444C6.08975 2.01913 5.91284 1.6178 5.6087 1.32686C5.30559 1.03691 4.9008 0.879121 4.48481 0.879121C4.06883 0.879121 3.66403 1.03691 3.36093 1.32686C3.05678 1.6178 2.87987 2.01913 2.87987 2.44444C2.87987 2.86976 3.05678 3.27109 3.36093 3.56203Z" fill="#FFCC2A" stroke="#FFCC2A" stroke-width="1.38461"/>
</svg>
