<svg width="48" height="48" viewBox="0 0 48 48" fill="none" xmlns="http://www.w3.org/2000/svg">
<circle cx="24" cy="24" r="24" fill="#FFE180"/>
<path d="M29.1589 34.9999C22.4994 31.5925 11.4107 24.6888 20.3312 24.3333C31.4819 23.8888 28.2287 22.1111 20.3312 18.1111" stroke="#020202" stroke-width="2" stroke-linecap="round"/>
<path d="M29.2248 33.4849C28.9602 33.1651 28.6426 32.7617 28.3263 32.3132C27.9404 31.7661 27.568 31.1683 27.2951 30.5854C27.0164 29.9903 26.8737 29.4784 26.8737 29.0848C26.8737 27.898 27.8875 26.8737 29.2248 26.8737C30.562 26.8737 31.5758 27.898 31.5758 29.0848C31.5758 29.4784 31.4332 29.9903 31.1545 30.5854C30.8815 31.1683 30.5091 31.7661 30.1232 32.3132C29.8069 32.7617 29.4893 33.1651 29.2248 33.4849ZM27.8065 30.4951C28.189 30.861 28.6998 31.0601 29.2248 31.0601C29.7497 31.0601 30.2605 30.861 30.643 30.4951C31.0269 30.128 31.2501 29.6215 31.2501 29.0848C31.2501 28.548 31.0269 28.0416 30.643 27.6744C30.2605 27.3085 29.7497 27.1094 29.2248 27.1094C28.6998 27.1094 28.189 27.3085 27.8065 27.6744C27.4226 28.0416 27.1994 28.548 27.1994 29.0848C27.1994 29.6215 27.4226 30.128 27.8065 30.4951Z" fill="#020202" stroke="#020202" stroke-width="1.74732"/>
<path d="M20.2248 16.4849C19.9602 16.1651 19.6426 15.7617 19.3263 15.3132C18.9404 14.7661 18.568 14.1683 18.2951 13.5854C18.0164 12.9903 17.8737 12.4784 17.8737 12.0848C17.8737 10.898 18.8875 9.87366 20.2248 9.87366C21.562 9.87366 22.5758 10.898 22.5758 12.0848C22.5758 12.4784 22.4332 12.9903 22.1545 13.5854C21.8815 14.1683 21.5091 14.7661 21.1232 15.3132C20.8069 15.7617 20.4893 16.1651 20.2248 16.4849ZM18.8065 13.4951C19.189 13.861 19.6998 14.0601 20.2248 14.0601C20.7497 14.0601 21.2605 13.861 21.643 13.4951C22.0269 13.128 22.2501 12.6215 22.2501 12.0848C22.2501 11.548 22.0269 11.0416 21.643 10.6744C21.2605 10.3085 20.7497 10.1094 20.2248 10.1094C19.6998 10.1094 19.189 10.3085 18.8065 10.6744C18.4226 11.0416 18.1994 11.548 18.1994 12.0848C18.1994 12.6215 18.4226 13.128 18.8065 13.4951Z" fill="#020202" stroke="#020202" stroke-width="1.74732"/>
</svg>
