<svg width="23" height="22" viewBox="0 0 23 22" fill="none" xmlns="http://www.w3.org/2000/svg">
<path d="M8.45173 14.4594C3.89336 14.4594 0 15.2006 0 18.1632C0 21.128 3.8686 21.8948 8.45173 21.8948C13.0101 21.8948 16.9035 21.1536 16.9035 18.191C16.9035 15.2261 13.0349 14.4594 8.45173 14.4594Z" fill="#020202"/>
<path d="M8.45186 11.6353C11.5564 11.6353 14.0443 9.07065 14.0443 5.87031C14.0443 2.66997 11.5564 0.105286 8.45186 0.105286C5.34842 0.105286 2.85938 2.66997 2.85938 5.87031C2.85938 9.07065 5.34842 11.6353 8.45186 11.6353Z" fill="#020202"/>
<path d="M16.299 5.97483C16.299 7.60458 15.8242 9.12529 14.9915 10.3885C14.9048 10.5184 14.9813 10.6936 15.1321 10.7214C15.3414 10.7574 15.5563 10.7794 15.7758 10.784C17.9587 10.8432 19.9178 9.3944 20.459 7.21251C21.2613 3.97505 18.9073 1.06818 15.9085 1.06818C15.5833 1.06818 15.2717 1.10298 14.9678 1.16677C14.9262 1.17605 14.8812 1.19693 14.8587 1.23405C14.8294 1.28161 14.8508 1.34309 14.8801 1.38369C15.7814 2.68633 16.299 4.272 16.299 5.97483Z" fill="#020202"/>
<path d="M22.7458 14.8366C22.3464 13.9585 21.382 13.3565 19.9147 13.0607C19.2227 12.8867 17.348 12.6397 15.605 12.6745C15.5791 12.6779 15.5645 12.6965 15.5622 12.7081C15.5589 12.7267 15.5667 12.7545 15.6005 12.7742C16.4062 13.1848 19.5197 14.9712 19.1281 18.7387C19.1113 18.9035 19.2384 19.0427 19.3971 19.0195C20.1634 18.9069 22.1348 18.4696 22.7458 17.1102C23.0845 16.391 23.0845 15.5558 22.7458 14.8366Z" fill="#020202"/>
</svg>
