<svg width="20" height="20" viewBox="0 0 20 20" fill="none" xmlns="http://www.w3.org/2000/svg">
<path fill-rule="evenodd" clip-rule="evenodd" d="M7.66196 19.0001C4.06925 19.0001 1 18.4717 1 16.3543C1 14.237 4.04969 12.3291 7.66196 12.3291C11.2547 12.3291 14.3229 14.2189 14.3229 16.3353C14.3229 18.4517 11.2742 19.0001 7.66196 19.0001Z" stroke="#8A8A8A" stroke-width="1.35" stroke-linecap="round" stroke-linejoin="round"/>
<path fill-rule="evenodd" clip-rule="evenodd" d="M7.66203 9.30944C10.02 9.30944 11.9318 7.44914 11.9318 5.15472C11.9318 2.86029 10.02 1 7.66203 1C5.30407 1 3.39224 2.86029 3.39224 5.15472C3.38347 7.44153 5.28255 9.30182 7.6317 9.30944H7.66203Z" stroke="#8A8A8A" stroke-width="1.35" stroke-linecap="round" stroke-linejoin="round"/>
<path d="M14.7483 8.1681C16.121 7.81109 17.1326 6.59342 17.1326 5.14441C17.1336 3.63257 16.031 2.37016 14.5653 2.07788" stroke="#8A8A8A" stroke-width="1.35" stroke-linecap="round" stroke-linejoin="round"/>
<path d="M15.3937 11.5715C17.3387 11.5715 19.0001 12.8549 19.0001 14.0002C19.0001 14.6752 18.4277 15.3683 17.5569 15.5673" stroke="#8A8A8A" stroke-width="1.35" stroke-linecap="round" stroke-linejoin="round"/>
</svg>
