<svg width="19" height="18" viewBox="0 0 19 18" fill="none" xmlns="http://www.w3.org/2000/svg">
<path d="M6.98187 11.8577C3.21625 11.8577 0 12.47 0 14.9173C0 17.3665 3.1958 17.9999 6.98187 17.9999C10.7475 17.9999 13.9637 17.3876 13.9637 14.9403C13.9637 12.4911 10.7679 11.8577 6.98187 11.8577Z" fill="#FFCC2A"/>
<path d="M6.98194 9.52482C9.54657 9.52482 11.6018 7.40617 11.6018 4.76241C11.6018 2.11865 9.54657 0 6.98194 0C4.41823 0 2.36206 2.11865 2.36206 4.76241C2.36206 7.40617 4.41823 9.52482 6.98194 9.52482Z" fill="#FFCC2A"/>
<path d="M13.4647 4.84873C13.4647 6.19505 13.0724 7.45129 12.3845 8.4948C12.313 8.60212 12.3762 8.74682 12.5007 8.76981C12.6736 8.79952 12.8512 8.81773 13.0324 8.82156C14.8358 8.87043 16.4541 7.6736 16.9012 5.87116C17.564 3.19674 15.6194 0.79541 13.1421 0.79541C12.8735 0.79541 12.616 0.824157 12.365 0.87686C12.3306 0.884526 12.2934 0.901774 12.2748 0.932437C12.2507 0.971725 12.2683 1.02251 12.2925 1.05605C13.0371 2.13214 13.4647 3.44205 13.4647 4.84873Z" fill="#FFCC2A"/>
<path d="M18.7902 12.1693C18.4602 11.4439 17.6636 10.9465 16.4514 10.7022C15.8798 10.5585 14.3311 10.3544 12.8913 10.3831C12.8699 10.386 12.8578 10.4013 12.8559 10.4109C12.8531 10.4262 12.8597 10.4492 12.8875 10.4655C13.5531 10.8047 16.1252 12.2804 15.8017 15.3927C15.7877 15.5288 15.8928 15.6438 16.0239 15.6246C16.6569 15.5317 18.2855 15.1704 18.7902 14.0474C19.07 13.4533 19.07 12.7634 18.7902 12.1693Z" fill="#FFCC2A"/>
</svg>
