<svg width="24" height="24" viewBox="0 0 24 24" fill="none" xmlns="http://www.w3.org/2000/svg">
<path d="M20.7 10.8C20.5875 10.6125 19.4771 10.1329 19.4771 10.1329C19.6703 10.0331 19.8022 10.0125 19.8022 9.6C19.8022 9.15 19.8 9 19.5 9H18.4823C18.4781 8.991 18.4736 8.98162 18.4695 8.97225C17.8125 7.5375 17.7244 7.17488 16.7445 6.68662C15.4301 6.033 12.966 6 12 6C11.034 6 8.56988 6.033 7.25663 6.68662C6.27562 7.17412 6.3 7.425 5.53163 8.97225C5.53163 8.97637 5.52375 8.98725 5.51663 9H4.49775C4.2 9 4.19775 9.15 4.19775 9.6C4.19775 10.0125 4.32975 10.0331 4.52288 10.1329C4.52288 10.1329 3.45 10.65 3.3 10.8C3.15 10.95 3 12 3 13.8C3 15.6 3.15 17.4 3.15 17.4H3.59775C3.59775 17.925 3.675 18 3.9 18H6.9C7.125 18 7.2 17.925 7.2 17.4H16.8C16.8 17.925 16.875 18 17.1 18H20.175C20.325 18 20.4 17.8875 20.4 17.4H20.85C20.85 17.4 21 15.5625 21 13.8C21 12.0375 20.8125 10.9875 20.7 10.8ZM7.09725 12.4853C6.41427 12.5599 5.7278 12.5982 5.04075 12.6C4.275 12.6 4.24875 12.6491 4.19475 12.171C4.17444 11.9522 4.18086 11.7317 4.21388 11.5144L4.2375 11.4H4.35C4.8 11.4 5.22263 11.4191 6.02063 11.6543C6.4265 11.776 6.80825 11.9671 7.149 12.219C7.3125 12.3375 7.35 12.45 7.35 12.45L7.09725 12.4853ZM16.3658 15.1853L16.2 15.6H7.8C7.8 15.6 7.81463 15.5771 7.6125 15.1808C7.4625 14.8875 7.65 14.7 7.94663 14.5935C8.52113 14.3865 10.2 13.8 12 13.8C13.8 13.8 15.5123 14.3055 16.0688 14.5935C16.275 14.7 16.5311 14.775 16.3658 15.1875V15.1853ZM6.72825 10.0654C6.60712 10.0724 6.48572 10.0732 6.3645 10.068C6.46238 9.894 6.51675 9.70013 6.61238 9.49763C6.91238 8.86013 7.2555 8.13862 7.86638 7.8345C8.74913 7.395 10.5788 7.197 12 7.197C13.4213 7.197 15.2509 7.3935 16.1336 7.8345C16.7445 8.13862 17.0861 8.8605 17.3876 9.49763C17.484 9.702 17.5376 9.89738 17.6381 10.0725C17.5631 10.0766 17.4769 10.0725 17.271 10.0654H6.72825ZM19.7678 12.1695C19.6875 12.6375 19.7625 12.6 18.9593 12.6C18.2722 12.5982 17.5857 12.5599 16.9028 12.4853C16.7959 12.4661 16.7655 12.2857 16.851 12.219C17.19 11.9643 17.5723 11.773 17.9794 11.6543C18.7774 11.4191 19.2266 11.3876 19.6703 11.4034C19.7 11.4045 19.7284 11.4166 19.7498 11.4374C19.7712 11.4582 19.7841 11.4861 19.7861 11.5159C19.8073 11.7342 19.8011 11.9542 19.7678 12.171V12.1695Z" fill="#FFCC2A"/>
</svg>
