<svg width="24" height="24" viewBox="0 0 24 24" fill="none" xmlns="http://www.w3.org/2000/svg">
<path d="M20.5875 11.1401C20.2929 10.7491 19.1987 10.4799 18.7358 9.77626C18.2729 9.07265 17.894 7.54891 16.7158 6.96344C15.5377 6.37797 13.2858 6.21362 11.9999 6.21362C10.7141 6.21362 8.46382 6.37436 7.28405 6.96223C6.10427 7.55011 5.72695 9.07265 5.26404 9.77505C4.80114 10.4775 3.70695 10.7491 3.41241 11.1401C3.11786 11.5311 2.91052 14.0027 3.03669 15.2146C3.16287 16.4266 3.39834 17.1434 3.39834 17.1434H6.85409C7.41987 17.1434 7.60391 16.9309 8.76118 16.822C10.031 16.7014 11.2766 16.6612 11.9999 16.6612C12.7232 16.6612 14.0091 16.7014 15.2781 16.822C16.4353 16.9317 16.6254 17.1434 17.1852 17.1434H20.6007C20.6007 17.1434 20.8362 16.4266 20.9624 15.2146C21.0886 14.0027 20.8804 11.5311 20.5875 11.1401ZM17.7863 17.1434H20.0366V17.7864H17.7863V17.1434ZM3.96332 17.1434H6.21357V17.7864H3.96332V17.1434Z" stroke="black" stroke-width="1.28586" stroke-linecap="round" stroke-linejoin="round"/>
<path d="M16.3587 14.1361C16.1212 13.8617 15.3473 13.6326 14.3226 13.4791C13.298 13.3256 12.9243 13.2858 12.0081 13.2858C11.0919 13.2858 10.6752 13.3517 9.69315 13.4791C8.71108 13.6065 7.97372 13.8331 7.65747 14.1361C7.18291 14.5958 7.87808 15.1118 8.42377 15.1744C8.95258 15.2347 10.0098 15.2126 12.0125 15.2126C14.0152 15.2126 15.0725 15.2347 15.6013 15.1744C16.1462 15.1081 16.7915 14.628 16.3587 14.1361ZM19.055 11.4796C19.0528 11.4477 19.0388 11.4177 19.0158 11.3955C18.9928 11.3732 18.9624 11.3603 18.9304 11.3591C18.4559 11.3422 17.9741 11.3759 17.1194 11.6279C16.6833 11.7552 16.2739 11.9602 15.9107 12.233C15.8191 12.3046 15.8516 12.4979 15.9665 12.5183C16.671 12.601 17.3797 12.6426 18.089 12.6429C18.5145 12.6429 18.9537 12.5224 19.0353 12.143C19.0769 11.9243 19.0836 11.7004 19.055 11.4796ZM4.94512 11.4796C4.94737 11.4477 4.96133 11.4177 4.98432 11.3955C5.00732 11.3732 5.03771 11.3603 5.06968 11.3591C5.54425 11.3422 6.02604 11.3759 6.88074 11.6279C7.31679 11.7552 7.72626 11.9602 8.08944 12.233C8.18106 12.3046 8.14851 12.4979 8.03359 12.5183C7.32911 12.601 6.62042 12.6426 5.91112 12.6429C5.48558 12.6429 5.04638 12.5224 4.96481 12.143C4.92322 11.9243 4.91657 11.7004 4.94512 11.4796Z" fill="black"/>
<path d="M19.0721 9.42828H19.715M4.28467 9.42828H4.9276M4.84723 10.1918C4.84723 10.1918 6.70972 9.70957 11.9998 9.70957C17.2899 9.70957 19.1524 10.1918 19.1524 10.1918" stroke="black" stroke-width="1.28586" stroke-linecap="round" stroke-linejoin="round"/>
</svg>
