<svg width="23" height="21" viewBox="0 0 23 21" fill="none" xmlns="http://www.w3.org/2000/svg">
<path d="M16.784 0.333313C20.6927 0.333313 22.9997 2.53842 22.9997 6.31309H18.2044V6.35161C15.9789 6.35161 14.1748 8.07608 14.1748 10.2033C14.1748 12.3306 15.9789 14.055 18.2044 14.055H22.9997V14.4017C22.9997 18.1282 20.6927 20.3333 16.784 20.3333H6.54871C2.63997 20.3333 0.333008 18.1282 0.333008 14.4017V6.26495C0.333008 2.53842 2.63997 0.333313 6.54871 0.333313H16.784ZM22.1535 7.96933C22.6208 7.96933 22.9997 8.33147 22.9997 8.77819V11.5899C22.9942 12.0345 22.6185 12.3936 22.1535 12.3988H18.2951C17.1684 12.4133 16.1832 11.6759 15.9277 10.627C15.7997 9.97586 15.9794 9.30394 16.4185 8.79133C16.8576 8.27872 17.5113 7.97784 18.2044 7.96933H22.1535ZM18.7484 9.26928H18.3757C18.1468 9.26671 17.9264 9.3518 17.7637 9.50558C17.6009 9.65935 17.5093 9.86901 17.5093 10.0878C17.5093 10.5467 17.8956 10.9202 18.3757 10.9255H18.7484C19.2269 10.9255 19.6148 10.5548 19.6148 10.0974C19.6148 9.64004 19.2269 9.26928 18.7484 9.26928ZM12.0995 4.65686H5.70249C5.22791 4.65683 4.84164 5.02175 4.83612 5.47535C4.83612 5.93429 5.22238 6.30782 5.70249 6.31309H12.0995C12.578 6.31309 12.9659 5.94233 12.9659 5.48497C12.9659 5.02762 12.578 4.65686 12.0995 4.65686Z" fill="#020202"/>
</svg>
