<svg width="75" height="75" viewBox="0 0 75 75" fill="none" xmlns="http://www.w3.org/2000/svg">
<circle cx="37.7667" cy="37.7987" r="37.0792" fill="#FFCC2A"/>
<path d="M46.7033 21.3191C52.7422 21.3191 56.3064 24.7259 56.3064 30.5577H48.8979V30.6172C45.4595 30.6172 42.6722 33.2814 42.6722 36.5679C42.6722 39.8545 45.4595 42.5187 48.8979 42.5187H56.3064V43.0543C56.3064 48.8116 52.7422 52.2185 46.7033 52.2185H30.8902C24.8513 52.2185 21.2871 48.8116 21.2871 43.0543V30.4833C21.2871 24.7259 24.8513 21.3191 30.8902 21.3191H46.7033ZM54.999 33.1165C55.721 33.1165 56.3064 33.676 56.3064 34.3661V38.7102C56.298 39.397 55.7175 39.9518 54.999 39.9599H49.0379C47.2973 39.9823 45.7752 38.8431 45.3804 37.2225C45.1826 36.2165 45.4602 35.1784 46.1387 34.3865C46.8171 33.5945 47.8271 33.1296 48.8979 33.1165H54.999ZM49.7383 35.1249H49.1624C48.8089 35.1209 48.4684 35.2524 48.2169 35.4899C47.9654 35.7275 47.8239 36.0514 47.8239 36.3894C47.8239 37.0985 48.4207 37.6756 49.1624 37.6837H49.7383C50.4776 37.6837 51.0768 37.1109 51.0768 36.4043C51.0768 35.6977 50.4776 35.1249 49.7383 35.1249ZM39.466 27.9988H29.5828C28.8496 27.9988 28.2528 28.5626 28.2443 29.2634C28.2443 29.9724 28.841 30.5495 29.5828 30.5577H39.466C40.2052 30.5577 40.8045 29.9848 40.8045 29.2782C40.8045 28.5716 40.2052 27.9988 39.466 27.9988Z" fill="#020202"/>
</svg>
