<svg width="17" height="15" viewBox="0 0 17 15" fill="none" xmlns="http://www.w3.org/2000/svg">
<path d="M12.3382 0C15.2698 0 17 1.65383 17 4.48483H13.4036V4.51372C11.7344 4.51372 10.3813 5.80707 10.3813 7.4025C10.3813 8.99793 11.7344 10.2913 13.4036 10.2913H17V10.5513C17 13.3462 15.2698 15 12.3382 15H4.66178C1.73022 15 0 13.3462 0 10.5513V4.44872C0 1.65383 1.73022 0 4.66178 0H12.3382ZM16.3653 5.72701C16.7159 5.72701 17 5.99861 17 6.33365V8.44246C16.9959 8.77588 16.7141 9.04521 16.3653 9.04911H13.4716C12.6266 9.05998 11.8877 8.50698 11.696 7.72027C11.6 7.23191 11.7348 6.72797 12.0641 6.34351C12.3935 5.95906 12.8837 5.7334 13.4036 5.72701H16.3653ZM13.8116 6.70197H13.532C13.3604 6.70004 13.1951 6.76387 13.073 6.8792C12.9509 6.99453 12.8822 7.15177 12.8822 7.31584C12.8822 7.66005 13.1719 7.94019 13.532 7.94415H13.8116C14.1704 7.94415 14.4613 7.66608 14.4613 7.32306C14.4613 6.98004 14.1704 6.70197 13.8116 6.70197ZM8.82489 3.24266H4.02711C3.67118 3.24263 3.38147 3.51633 3.37733 3.85652C3.37733 4.20073 3.66703 4.48088 4.02711 4.48483H8.82489C9.18375 4.48483 9.47467 4.20676 9.47467 3.86375C9.47467 3.52073 9.18375 3.24266 8.82489 3.24266Z" fill="#FFCC2A"/>
</svg>
