<svg width="13" height="13" viewBox="0 0 13 13" fill="none" xmlns="http://www.w3.org/2000/svg">
<path d="M5.875 9.62497H7.125V7.12497H9.625V5.87497H7.125V3.37497H5.875V5.87497H3.375V7.12497H5.875V9.62497ZM6.5 12.75C5.63542 12.75 4.82292 12.5858 4.0625 12.2575C3.30208 11.9291 2.64062 11.4839 2.07813 10.9218C1.51563 10.3593 1.07042 9.69789 0.7425 8.93747C0.414583 8.17705 0.250417 7.36455 0.25 6.49997C0.25 5.63539 0.414167 4.82289 0.7425 4.06247C1.07083 3.30205 1.51604 2.64059 2.07813 2.07809C2.64062 1.51559 3.30208 1.07039 4.0625 0.74247C4.82292 0.414553 5.63542 0.250386 6.5 0.249969C7.36458 0.249969 8.17708 0.414136 8.9375 0.74247C9.69792 1.0708 10.3594 1.51601 10.9219 2.07809C11.4844 2.64059 11.9298 3.30205 12.2581 4.06247C12.5865 4.82289 12.7504 5.63539 12.75 6.49997C12.75 7.36455 12.5858 8.17705 12.2575 8.93747C11.9292 9.69789 11.484 10.3593 10.9219 10.9218C10.3594 11.4843 9.69792 11.9298 8.9375 12.2581C8.17708 12.5864 7.36458 12.7504 6.5 12.75ZM6.5 11.5C7.89583 11.5 9.07812 11.0156 10.0469 10.0468C11.0156 9.07809 11.5 7.8958 11.5 6.49997C11.5 5.10414 11.0156 3.92184 10.0469 2.95309C9.07812 1.98434 7.89583 1.49997 6.5 1.49997C5.10417 1.49997 3.92187 1.98434 2.95312 2.95309C1.98437 3.92184 1.5 5.10414 1.5 6.49997C1.5 7.8958 1.98437 9.07809 2.95312 10.0468C3.92187 11.0156 5.10417 11.5 6.5 11.5Z" fill="#FAFAFA"/>
</svg>
